<?xml version="1.0" encoding="UTF-8" standalone="no"?>
<svg width="64px" height="64px" viewBox="0 0 64 64" version="1.1" xmlns="http://www.w3.org/2000/svg" xmlns:xlink="http://www.w3.org/1999/xlink">
    <!-- Generator: Sketch 41.2 (35397) - http://www.bohemiancoding.com/sketch -->
    <title>Artboard 4 Copy 4</title>
    <desc>Created with Sketch.</desc>
    <defs></defs>
    <g id="Page-1" stroke="none" stroke-width="1" fill="none" fill-rule="evenodd">
        <g id="Artboard-4-Copy-4" fill="#000000">
            <path d="M50.388,1.486 L50.388,13.096 L26.652,13.096 L26.652,23.158 C28.4293422,22.6419974 30.4646552,22.384 32.758,22.384 C38.5486956,22.384 43.5366457,24.1326492 47.722,27.63 C51.9073543,31.1273508 54,35.8429703 54,41.777 C54,47.7110297 51.8356883,52.6129806 47.507,56.483 C43.1783117,60.3530193 37.8320318,62.288 31.468,62.288 C23.326626,62.288 16.5326939,59.2780301 11.086,53.258 L18.138,43.454 C18.6540026,43.9700026 19.3419957,44.6006629 20.202,45.346 C21.0620043,46.0913371 22.6386552,47.0803272 24.932,48.313 C27.2253448,49.5456728 29.5186552,50.162 31.812,50.162 C34.1053448,50.162 36.1406578,49.4740069 37.918,48.098 C39.6953422,46.7219931 40.584,44.6866801 40.584,41.992 C40.584,39.2973199 39.6236763,37.2190073 37.703,35.757 C35.7823237,34.2949927 33.3026819,33.564 30.264,33.564 C27.2253181,33.564 23.6993534,34.6533224 19.686,36.832 L14.096,30.812 L14.096,1.486 L50.388,1.486 Z" id="5"></path>
        </g>
    </g>
</svg>