<?xml version="1.0" encoding="UTF-8" standalone="no"?>
<svg width="64px" height="64px" viewBox="0 0 64 64" version="1.1" xmlns="http://www.w3.org/2000/svg" xmlns:xlink="http://www.w3.org/1999/xlink">
    <!-- Generator: Sketch 41.2 (35397) - http://www.bohemiancoding.com/sketch -->
    <title>Artboard 4 Copy</title>
    <desc>Created with Sketch.</desc>
    <defs></defs>
    <g id="Page-1" stroke="none" stroke-width="1" fill="none" fill-rule="evenodd">
        <g id="Artboard-4-Copy" fill="#000000">
            <path d="M38.649,20.192 C38.649,17.4973199 36.4990215,16.15 32.199,16.15 C27.8989785,16.15 23.9430181,18.8446397 20.331,24.234 L9.581,17.87 C12.3903474,13.6273121 15.7873134,10.3593448 19.772,8.066 C23.7566866,5.7726552 28.013644,4.626 32.543,4.626 C38.5630301,4.626 43.3216492,5.94465348 46.819,8.582 C50.3163508,11.2193465 52.065,14.8313104 52.065,19.418 C52.065,22.4566819 51.0330103,25.3233199 48.969,28.018 C46.9049897,30.7126801 42.8630301,34.5253087 36.843,39.456 L30.135,44.96 L53.871,44.96 L53.871,57 L11.473,57 L11.473,47.024 L28.587,32.318 C32.9443551,28.5339811 35.7106608,25.9253405 36.886,24.492 C38.0613392,23.0586595 38.649,21.6253405 38.649,20.192 Z" id="2"></path>
        </g>
    </g>
</svg>