<?xml version="1.0" encoding="UTF-8" standalone="no"?>
<svg width="227px" height="51px" viewBox="0 0 227 51" version="1.1" xmlns="http://www.w3.org/2000/svg" xmlns:xlink="http://www.w3.org/1999/xlink">
    <!-- Generator: Sketch 41.2 (35397) - http://www.bohemiancoding.com/sketch -->
    <title>Page 1</title>
    <desc>Created with Sketch.</desc>
    <defs>
        <polygon id="path-1" points="0 50.2975274 226.666855 50.2975274 226.666855 0.386687391 0 0.386687391"></polygon>
    </defs>
    <g id="Page-1" stroke="none" stroke-width="1" fill="none" fill-rule="evenodd">
        <g>
            <polygon id="Fill-1" fill="#FEFEFE" points="70.4383783 47.9230818 74.666303 47.9230818 74.666303 32.5734835 70.4383783 32.5734835"></polygon>
            <g id="Group-24" transform="translate(0.000000, 0.015693)">
                <path d="M82.8969413,39.3481581 L82.8969413,47.9075901 L78.6690166,47.9075901 L78.6690166,32.5579919 L82.8969413,32.5579919 L82.8969413,34.2701197 C84.1746611,32.9571531 85.6129904,32.3012733 87.2095438,32.3012733 C88.8072898,32.3012733 90.1458345,32.8714461 91.227563,34.0125964 C92.3069063,35.1549538 92.8483669,36.6767558 92.8483669,38.5784047 L92.8483669,47.9075901 L88.6192496,47.9075901 L88.6192496,39.2342845 C88.6192496,36.8763364 87.7637259,35.6957528 86.0546664,35.6957528 C85.2090814,35.6957528 84.470437,36.0055856 83.8419133,36.6236416 C83.2114019,37.2421 82.8969413,38.1498698 82.8969413,39.3481581 Z" id="Fill-2" fill="#FEFEFE"></path>
                <path d="M103.95459,44.3411735 C105.363104,44.3411735 106.63168,43.6285582 107.759126,42.2017179 L110.268848,45.0537889 C108.312911,47.1087447 106.199147,48.1364238 103.925967,48.1364238 C101.651594,48.1364238 99.7302436,47.4085179 98.161121,45.9539135 C96.5919984,44.4981018 95.8076359,42.5964529 95.8076359,40.2465524 C95.8076359,37.8982615 96.601142,35.9861507 98.1897445,34.5130367 C99.7771543,33.0383132 101.66034,32.3011526 103.840892,32.3011526 C104.930571,32.3011526 106.03496,32.5297046 107.153263,32.9864061 C108.270771,33.4427053 109.25351,34.1183017 110.099095,35.0119881 L107.900256,37.9211971 C107.411669,37.3329172 106.814949,36.8766181 106.110892,36.552702 C105.405244,36.2287859 104.705956,36.0674315 104.010645,36.0674315 C102.901883,36.0674315 101.94737,36.4344022 101.149093,37.1655271 C100.350816,37.8982615 99.9516779,38.9162834 99.9516779,40.2187882 C99.9516779,41.521293 100.350816,42.5348887 101.149093,43.2571612 C101.94737,43.9802385 102.883198,44.3411735 103.95459,44.3411735" id="Fill-4" fill="#FEFEFE"></path>
                <mask id="mask-2" fill="white">
                    <use xlink:href="#path-1"></use>
                </mask>
                <g id="Clip-7"></g>
                <path d="M113.086947,47.9073889 L117.314475,47.9073889 L117.314475,32.5577907 L113.086947,32.5577907 L113.086947,47.9073889 Z M113.439175,30.6042347 C112.959732,30.1185618 112.720011,29.5242462 112.720011,28.8208856 C112.720011,28.1171226 112.959732,27.5215999 113.439175,27.0375365 C113.918221,26.5522659 114.505797,26.3096307 115.200711,26.3096307 C115.895625,26.3096307 116.483201,26.5522659 116.962247,27.0375365 C117.442088,27.5215999 117.681809,28.1171226 117.681809,28.8208856 C117.681809,29.5242462 117.442088,30.1185618 116.962247,30.6042347 C116.483201,31.0882981 115.895625,31.3309334 115.200711,31.3309334 C114.505797,31.3309334 113.918221,31.0882981 113.439175,30.6042347 L113.439175,30.6042347 Z" id="Fill-6" fill="#FEFEFE" mask="url(#mask-2)"></path>
                <path d="M124.728589,40.2617624 C124.728589,41.4982768 125.094731,42.5102631 125.827809,43.299733 C126.560491,44.089203 127.415219,44.483938 128.392393,44.483938 C129.369566,44.483938 130.201237,44.089203 130.887007,43.299733 C131.572778,42.5102631 131.915862,41.4934482 131.915862,40.2464719 C131.915862,39.0011052 131.572778,37.9641713 130.887007,37.1376824 C130.201237,36.3099863 129.360025,35.8967418 128.364564,35.8967418 C127.367911,35.8967418 126.513182,36.3144124 125.798788,37.1517657 C125.085189,37.9887165 124.728589,39.025248 124.728589,40.2617624 M127.392161,48.1363433 C125.597232,48.1363433 123.995908,47.3653828 122.586202,45.8250713 C121.176496,44.2843574 120.472438,42.3722466 120.472438,40.089946 C120.472438,37.8076454 121.158209,35.9385893 122.530147,34.4839848 C123.900496,33.0289779 125.507386,32.3010721 127.349624,32.3010721 C129.191862,32.3010721 130.694196,32.9573543 131.85941,34.2703209 L131.85941,26.7381656 L136.088527,26.7381656 L136.088527,47.9073889 L131.85941,47.9073889 L131.85941,45.8818069 C130.675909,47.3850994 129.185899,48.1363433 127.392161,48.1363433" id="Fill-8" fill="#FEFEFE" mask="url(#mask-2)"></path>
                <path d="M147.390782,36.0104544 C146.357157,36.0104544 145.441206,36.35288 144.642929,37.0377311 C143.843062,37.7217775 143.443924,38.6738091 143.443924,39.8902045 C143.443924,40.1187565 143.454658,40.2897681 143.472945,40.4044464 L150.069064,37.6940133 C149.824969,36.5713724 148.931281,36.0104544 147.390782,36.0104544 M147.25005,44.6270244 C148.05747,44.6270244 148.843025,44.4226153 149.603137,44.0125898 C150.36484,43.6041739 150.970703,43.0573392 151.421523,42.3724881 L153.846169,45.0261856 C151.910109,47.0996509 149.726377,48.1361823 147.29219,48.1361823 C144.8584,48.1361823 142.918763,47.3853408 141.47129,45.881646 C140.023817,44.3795606 139.301074,42.4630236 139.301074,40.1328398 C139.301074,37.8030583 140.094581,35.9150903 141.682388,34.4697406 C143.27099,33.0247932 145.098122,32.3013136 147.164975,32.3013136 C149.23302,32.3013136 150.961162,32.891203 152.351785,34.0705794 C153.743204,35.2499558 154.494173,36.770953 154.607474,38.6351806 L154.607474,39.1775891 L144.515714,43.3997648 C145.154176,44.2182061 146.066151,44.6270244 147.25005,44.6270244" id="Fill-9" fill="#FEFEFE" mask="url(#mask-2)"></path>
                <path d="M161.850841,39.3481581 L161.850841,47.9075901 L157.623314,47.9075901 L157.623314,32.5579919 L161.850841,32.5579919 L161.850841,34.2701197 C163.128958,32.9571531 164.56689,32.3012733 166.163841,32.3012733 C167.761189,32.3012733 169.099734,32.8714461 170.181463,34.0125964 C171.260806,35.1549538 171.802267,36.6767558 171.802267,38.5784047 L171.802267,47.9075901 L167.573547,47.9075901 L167.573547,39.2342845 C167.573547,36.8763364 166.717626,35.6957528 165.008566,35.6957528 C164.163379,35.6957528 163.424734,36.0055856 162.796211,36.6236416 C162.165302,37.2421 161.850841,38.1498698 161.850841,39.3481581" id="Fill-10" fill="#FEFEFE" mask="url(#mask-2)"></path>
                <path d="M182.90845,44.3411735 C184.316963,44.3411735 185.58554,43.6285582 186.712986,42.2017179 L189.222708,45.0537889 C187.267168,47.1087447 185.153007,48.1364238 182.879827,48.1364238 C180.605454,48.1364238 178.684104,47.4085179 177.115378,45.9539135 C175.545858,44.4981018 174.761496,42.5964529 174.761496,40.2465524 C174.761496,37.8982615 175.555399,35.9861507 177.143604,34.5130367 C178.731014,33.0383132 180.6142,32.3011526 182.795149,32.3011526 C183.884431,32.3011526 184.98882,32.5297046 186.10752,32.9864061 C187.224631,33.4427053 188.207767,34.1183017 189.052955,35.0119881 L186.854116,37.9211971 C186.365529,37.3329172 185.768809,36.8766181 185.064751,36.552702 C184.359501,36.2287859 183.659816,36.0674315 182.964902,36.0674315 C181.855743,36.0674315 180.90123,36.4344022 180.102953,37.1655271 C179.305074,37.8982615 178.905538,38.9162834 178.905538,40.2187882 C178.905538,41.521293 179.305074,42.5348887 180.102953,43.2571612 C180.90123,43.9802385 181.837456,44.3411735 182.90845,44.3411735" id="Fill-11" fill="#FEFEFE" mask="url(#mask-2)"></path>
                <polygon id="Fill-12" fill="#FEFEFE" mask="url(#mask-2)" points="192.040807 47.9073889 196.268732 47.9073889 196.268732 32.5577907 192.040807 32.5577907"></polygon>
                <path d="M203.76653,40.2617624 C203.76653,41.5167863 204.133467,42.5396368 204.866546,43.3291068 C205.599227,44.1181744 206.453956,44.5121046 207.431129,44.5121046 C208.408302,44.5121046 209.235203,44.1181744 209.912227,43.3291068 C210.588854,42.5396368 210.927168,41.5212125 210.927168,40.2758457 C210.927168,39.0300765 210.588854,37.9887165 209.912227,37.1517657 C209.235203,36.3144124 208.399159,35.8967418 207.403301,35.8967418 C206.407045,35.8967418 205.552316,36.3099863 204.837525,37.1376824 C204.123131,37.9641713 203.76653,39.0055313 203.76653,40.2617624 M201.68139,45.9385425 C200.23352,44.4746833 199.509982,42.5488916 199.509982,40.1619721 C199.509982,37.7750526 200.252204,35.8677704 201.737444,34.4409301 C203.221889,33.0140899 204.940887,32.3010721 206.895632,32.3010721 C208.417446,32.3010721 209.742077,32.8145093 210.869523,33.841786 L210.869523,32.5577907 L215.126071,32.5577907 L215.126071,47.9073889 L210.869523,47.9073889 L210.869523,46.6527674 C209.667735,47.641818 208.296194,48.1363433 206.754502,48.1363433 C204.819238,48.1363433 203.12767,47.4040113 201.68139,45.9385425" id="Fill-13" fill="#FEFEFE" mask="url(#mask-2)"></path>
                <path d="M100.073805,17.0981817 C100.073805,18.6095218 99.5243932,19.8226982 98.4243774,20.7352965 C97.3255543,21.6478949 95.9309553,22.1054012 94.2389904,22.1054012 C93.1115438,22.1054012 91.9371865,21.8997849 90.715521,21.4909666 C89.4938555,21.0825507 88.3942373,20.4785779 87.417859,19.6802556 L89.2783844,16.9983914 C90.8566506,18.2349058 92.5378818,18.8521571 94.3240657,18.8521571 C94.8687067,18.8521571 95.3000464,18.7431121 95.6200727,18.5238148 C95.9400989,18.3053224 96.0995158,18.0152062 96.0995158,17.6542712 C96.0995158,17.2933361 95.8780814,16.9601653 95.4364054,16.6559659 C94.995127,16.3517664 94.3558695,16.0660765 93.5198257,15.798896 C92.683782,15.533325 92.0449221,15.3043707 91.6032461,15.1140449 C91.1615701,14.9249262 90.6590692,14.6484909 90.0949483,14.2875559 C88.9492145,13.5644786 88.3755525,12.4953544 88.3755525,11.0777689 C88.3755525,9.6613905 88.9400709,8.50494975 90.0675175,7.6108609 C91.1949641,6.71717443 92.6503879,6.27013001 94.4361743,6.27013001 C96.2211655,6.27013001 98.0069518,6.8785289 99.7915455,8.09613145 L98.2132793,10.9486048 C96.8977925,10.0364089 95.5866786,9.5801097 94.281528,9.5801097 C92.9751848,9.5801097 92.3224107,9.94104475 92.3224107,10.664122 C92.3224107,11.0636856 92.5287382,11.3771398 92.9417907,11.6056917 C93.3560359,11.8334389 94.0418065,12.1006194 94.9995,12.4044165 C95.9583862,12.7086159 96.6397837,12.9419964 97.0432951,13.1033509 C97.447204,13.2647054 97.9310201,13.5165954 98.4955385,13.859021 C99.547451,14.5060483 100.073805,15.5856345 100.073805,17.0981817" id="Fill-14" fill="#FEFEFE" mask="url(#mask-2)"></path>
                <path d="M110.588278,18.3102314 C111.996791,18.3102314 113.265367,17.597616 114.392814,16.1707758 L116.902535,19.0228468 C114.946598,21.0778026 112.832835,22.1054816 110.559654,22.1054816 C108.285281,22.1054816 106.363931,21.3775758 104.794808,19.922569 C103.225686,18.4667573 102.441323,16.5655108 102.441323,14.2156103 C102.441323,11.866917 103.234829,9.95480616 104.823432,8.48169217 C106.410842,7.00737105 108.294027,6.27021049 110.474579,6.27021049 C111.564258,6.27021049 112.668647,6.49876245 113.78695,6.95506162 C114.904061,7.41136079 115.887197,8.08695718 116.732782,8.98104602 L114.533943,11.890255 C114.045357,11.3015728 113.448637,10.8452736 112.744579,10.5217599 C112.038931,10.1974414 111.339644,10.0364893 110.644332,10.0364893 C109.535173,10.0364893 108.581057,10.4030577 107.78278,11.134585 C106.984504,11.866917 106.585365,12.8853413 106.585365,14.1878461 C106.585365,15.4903508 106.984504,16.5039466 107.78278,17.2258167 C108.581057,17.9492964 109.516885,18.3102314 110.588278,18.3102314" id="Fill-15" fill="#FEFEFE" mask="url(#mask-2)"></path>
                <path d="M129.50191,14.8005907 L129.50191,6.52684859 L133.758458,6.52684859 L133.758458,21.8764468 L129.50191,21.8764468 L129.50191,19.8508648 C128.449202,21.3541573 127.091973,22.1054012 125.429029,22.1054012 C123.765687,22.1054012 122.370293,21.5770759 121.242847,20.5216326 C120.1154,19.4653845 119.550882,17.901735 119.550882,15.8282697 L119.550882,6.52684859 L123.80743,6.52684859 L123.80743,14.8867 C123.80743,17.2454529 124.662954,18.4240245 126.373206,18.4240245 C127.218393,18.4240245 127.951472,18.1149965 128.571647,17.4977453 C129.191425,16.8788845 129.50191,15.9803695 129.50191,14.8005907" id="Fill-16" fill="#FEFEFE" mask="url(#mask-2)"></path>
                <path d="M145.062183,9.97931111 C144.028558,9.97931111 143.11221,10.3217367 142.313933,11.0065878 C141.514464,11.6906342 141.115325,12.6426658 141.115325,13.8590612 C141.115325,14.0876132 141.125661,14.2586247 141.143949,14.3733031 L147.740068,11.6628699 C147.495973,10.5402291 146.602285,9.97931111 145.062183,9.97931111 M144.921054,18.5958811 C145.728474,18.5958811 146.514029,18.391472 147.274539,17.9814465 C148.035844,17.5730306 148.641707,17.0261959 149.092527,16.3413448 L151.517173,18.9950423 C149.581113,21.0685076 147.397381,22.1054414 144.963591,22.1054414 C142.529404,22.1054414 140.589767,21.3541975 139.142294,19.850905 C137.695218,18.3484173 136.972078,16.4318803 136.972078,14.1016965 C136.972078,11.771915 137.765982,9.88434938 139.353789,8.43859725 C140.941994,6.99364988 142.769126,6.27017025 144.836376,6.27017025 C146.904024,6.27017025 148.632563,6.86005965 150.022789,8.03943607 C151.414208,9.2188125 152.165176,10.7398097 152.278875,12.6040373 L152.278875,13.1464458 L142.186718,17.3686215 C142.825577,18.1870628 143.737155,18.5958811 144.921054,18.5958811" id="Fill-17" fill="#FEFEFE" mask="url(#mask-2)"></path>
                <path d="M159.550945,1.93287362 L159.550945,16.4841495 C159.550945,17.0736365 159.701219,17.5359714 160.001765,17.8679351 C160.302311,18.2011059 160.658912,18.3668865 161.07276,18.3668865 C161.861893,18.3668865 162.528184,18.0059515 163.074415,17.2824719 L164.652681,20.2789974 C163.336796,21.4957951 161.951341,22.1054012 160.494725,22.1054012 C159.038108,22.1054012 157.807299,21.6201306 156.802695,20.6495895 C155.796898,19.6798532 155.294397,18.3576318 155.294397,16.6837301 L155.294397,1.93287362 L159.550945,1.93287362 Z" id="Fill-18" fill="#FEFEFE" mask="url(#mask-2)"></path>
                <path d="M170.431123,14.2306191 C170.431123,15.485643 170.79806,16.5084935 171.531139,17.2979635 C172.26382,18.0870311 173.118549,18.4809613 174.095722,18.4809613 C175.072895,18.4809613 175.900193,18.0870311 176.57682,17.2979635 C177.253447,16.5084935 177.59176,15.4900692 177.59176,14.2447024 C177.59176,12.9989332 177.253447,11.9575732 176.57682,11.1206224 C175.900193,10.2832691 175.063752,9.86559846 174.067894,9.86559846 C173.071638,9.86559846 172.216909,10.2788429 171.502118,11.1065391 C170.787724,11.9334304 170.431123,12.974388 170.431123,14.2306191 M168.345983,19.9073992 C166.898112,18.44354 166.174575,16.5177483 166.174575,14.1308288 C166.174575,11.7439093 166.916797,9.83662709 168.402037,8.40978683 C169.886482,6.98294657 171.60548,6.2703312 173.560225,6.2703312 C175.082039,6.2703312 176.406669,6.78336598 177.534513,7.81064268 L177.534513,6.5266474 L181.790664,6.5266474 L181.790664,21.8762456 L177.534513,21.8762456 L177.534513,20.6216241 C176.332328,21.6106747 174.960787,22.1052 173.419095,22.1052 C171.48383,22.1052 169.792263,21.372868 168.345983,19.9073992" id="Fill-19" fill="#FEFEFE" mask="url(#mask-2)"></path>
                <path d="M196.787691,14.2306191 C196.787691,15.4671335 197.153833,16.4795221 197.886515,17.2685897 C198.619196,18.0580597 199.473924,18.4527947 200.451098,18.4527947 C201.428669,18.4527947 202.260339,18.0580597 202.945712,17.2685897 C203.631881,16.4795221 203.974567,15.4623049 203.974567,14.2153286 C203.974567,12.9699619 203.631881,11.9334304 202.945712,11.1065391 C202.260339,10.2788429 201.419127,9.86559846 200.423667,9.86559846 C199.427014,9.86559846 198.572285,10.2832691 197.857891,11.1206224 C197.144292,11.9575732 196.787691,12.9941047 196.787691,14.2306191 M199.450867,22.1052 C197.656334,22.1052 196.054613,21.3342395 194.644907,19.793928 C193.235201,18.2532141 192.531143,16.3411033 192.531143,14.0588027 C192.531143,11.7765021 193.217311,9.907446 194.58925,8.45284151 C195.959599,6.99783464 197.566488,6.2703312 199.408726,6.2703312 C201.250965,6.2703312 202.753299,6.92621096 203.918513,8.23917761 L203.918513,0.707022284 L208.147233,0.707022284 L208.147233,21.8762456 L203.918513,21.8762456 L203.918513,19.8506636 C202.735012,21.3543585 201.245001,22.1052 199.450867,22.1052" id="Fill-20" fill="#FEFEFE" mask="url(#mask-2)"></path>
                <path d="M219.449885,9.97931111 C218.416259,9.97931111 217.500308,10.3217367 216.701634,11.0065878 C215.902165,11.6906342 215.503026,12.6426658 215.503026,13.8590612 C215.503026,14.0876132 215.51376,14.2586247 215.532047,14.3733031 L222.128167,11.6628699 C221.883674,10.5402291 220.990384,9.97931111 219.449885,9.97931111 M219.309153,18.5958811 C220.116573,18.5958811 220.90173,18.391472 221.66224,17.9814465 C222.423942,17.5730306 223.029806,17.0261959 223.480625,16.3413448 L225.904874,18.9950423 C223.968815,21.0685076 221.785082,22.1054414 219.351293,22.1054414 C216.917503,22.1054414 214.977865,21.3541975 213.529995,19.850905 C212.08292,18.3484173 211.360177,16.4318803 211.360177,14.1016965 C211.360177,11.771915 212.153683,9.88434938 213.741491,8.43859725 C215.330093,6.99364988 217.156827,6.27017025 219.224077,6.27017025 C221.292123,6.27017025 223.020265,6.86005965 224.410888,8.03943607 C225.801909,9.2188125 226.553275,10.7398097 226.666576,12.6040373 L226.666576,13.1464458 L216.574419,17.3686215 C217.213279,18.1870628 218.125254,18.5958811 219.309153,18.5958811" id="Fill-21" fill="#FEFEFE" mask="url(#mask-2)"></path>
                <polygon id="Fill-22" fill="#FEFEFE" mask="url(#mask-2)" points="75.0552641 18.2717236 75.0552641 13.8117413 84.5697842 13.8117413 84.5697842 10.1693955 75.0552641 10.1693955 75.0552641 5.76655116 85.5962536 5.76655116 85.5962536 2.12420542 70.3733394 2.12420542 70.3733394 21.9140694 85.909124 21.9140694 85.909124 18.2717236"></polygon>
                <path d="M41.5437828,39.015108 C40.6655989,39.015108 39.8025219,38.9467034 38.9597198,38.815125 L38.9597198,10.8641855 L28.66362,10.8641855 C31.7648932,7.16590885 36.3867881,4.81278933 41.5437828,4.81278933 C50.860324,4.81278933 58.4395797,12.4841682 58.4395797,21.9139487 C58.4395797,31.3437291 50.860324,39.015108 41.5437828,39.015108 L41.5437828,39.015108 Z M34.58669,37.4916965 C28.7319982,34.8025895 24.647986,28.8336813 24.647986,21.9139487 C24.647986,19.5668648 25.1182855,17.3284237 25.9674483,15.2903679 L34.58669,15.2903679 L34.58669,37.4916965 Z M34.58669,45.8712646 L4.37302977,45.8712646 L4.37302977,15.2903679 L21.3093765,15.2903679 C20.6407005,17.3787212 20.2749562,19.6034814 20.2749562,21.9139487 C20.2749562,31.3183792 26.2664046,39.3281598 34.58669,42.2522569 L34.58669,45.8712646 Z M41.5437828,0.386606915 C33.8051103,0.386606915 27.0205534,4.59308973 23.2991051,10.8641855 L0,10.8641855 L0,50.297447 L38.9597198,50.297447 L38.9597198,43.2767169 C39.8072925,43.3813358 40.6683818,43.4412904 41.5437828,43.4412904 C53.2714536,43.4412904 62.8126095,33.7841651 62.8126095,21.9139487 C62.8126095,10.0437322 53.2714536,0.386606915 41.5437828,0.386606915 L41.5437828,0.386606915 Z" id="Fill-23" fill="#FEFEFE" mask="url(#mask-2)"></path>
            </g>
        </g>
    </g>
</svg>