<?xml version="1.0" encoding="UTF-8" standalone="no"?>
<svg width="180px" height="81px" viewBox="0 0 180 81" version="1.1" xmlns="http://www.w3.org/2000/svg" xmlns:xlink="http://www.w3.org/1999/xlink">
    <!-- Generator: Sketch 41.2 (35397) - http://www.bohemiancoding.com/sketch -->
    <title>Artboard 3 Copy 2</title>
    <desc>Created with Sketch.</desc>
    <defs>
        <polygon id="path-1" points="0 60.9294847 144.894994 60.9294847 144.894994 0 0 0"></polygon>
    </defs>
    <g id="Page-1" stroke="none" stroke-width="1" fill="none" fill-rule="evenodd">
        <g id="Artboard-3-Copy-2">
            <g id="Page-1" transform="translate(18.000000, 13.000000)">
                <path d="M9.67262324,30.0555666 L9.67262324,33.3157532 C9.67262324,33.761444 9.86663732,33.9937198 10.2999354,33.9937198 C10.7328932,33.9937198 10.9333744,33.761444 10.9333744,33.3157532 L10.9333744,30.0555666 L11.8258392,30.0555666 L11.8258392,33.3223799 C11.8258392,34.3488451 11.2179284,34.7812825 10.2999354,34.7812825 C9.38160211,34.7812825 8.78032864,34.3488451 8.78032864,33.3223799 L8.78032864,30.0555666 L9.67262324,30.0555666 Z" id="Fill-1" fill="#FFFFFF"></path>
                <polygon id="Fill-3" fill="#FFFFFF" points="12.7316808 34.7169011 12.7316808 30.0555836 13.7080481 30.0555836 14.9495681 32.8185947 14.9623322 32.8185947 14.9623322 30.0555836 15.7773615 30.0555836 15.7773615 34.7169011 14.9236995 34.7169011 13.559304 31.7081908 13.5463697 31.7081908 13.5463697 34.7169011"></polygon>
                <path d="M17.5883468,32.9477142 L18.4741743,32.9477142 L18.0408762,31.0626613 L18.0279419,31.0626613 L17.5883468,32.9477142 Z M16.3144912,34.7168841 L17.4717682,30.0555666 L18.6164513,30.0555666 L19.7413926,34.7168841 L18.888071,34.7168841 L18.6617212,33.7356167 L17.4266684,33.7356167 L17.1744501,34.7168841 L16.3144912,34.7168841 Z" id="Fill-5" fill="#FFFFFF"></path>
                <path d="M22.968868,32.1087518 L23.447436,32.1087518 C23.8872013,32.1087518 24.1069137,31.8890499 24.1069137,31.4499858 C24.1069137,31.0112616 23.8872013,30.7915596 23.447436,30.7915596 L22.968868,30.7915596 L22.968868,32.1087518 Z M22.0765734,34.7169691 L22.0765734,30.0556515 L23.3633633,30.0556515 C24.4626062,30.0556515 24.9993785,30.5721975 24.9993785,31.4499858 C24.9993785,32.3281139 24.4626062,32.84449 23.3633633,32.84449 L22.968868,32.84449 L22.968868,34.7169691 L22.0765734,34.7169691 Z" id="Fill-7" fill="#FFFFFF"></path>
                <polygon id="Fill-9" fill="#FFFFFF" points="25.620581 34.7169011 25.620581 30.0555836 26.5128756 30.0555836 26.5128756 33.9289986 27.9484096 33.9289986 27.9484096 34.7169011"></polygon>
                <path d="M29.4489724,32.9477142 L30.3347999,32.9477142 L29.9015018,31.0626613 L29.8885675,31.0626613 L29.4489724,32.9477142 Z M28.1751168,34.7168841 L29.3323938,30.0555666 L30.4770769,30.0555666 L31.6020182,34.7168841 L30.7486966,34.7168841 L30.5223468,33.7356167 L29.287294,33.7356167 L29.0350757,34.7168841 L28.1751168,34.7168841 Z" id="Fill-11" fill="#FFFFFF"></path>
                <polygon id="Fill-13" fill="#FFFFFF" points="34.4352705 30.0555666 34.4352705 30.8432992 33.3942318 30.8432992 33.3942318 34.7168841 32.5019372 34.7168841 32.5019372 30.8432992 31.4607283 30.8432992 31.4607283 30.0555666"></polygon>
                <path d="M35.6845851,32.9477142 L36.5704126,32.9477142 L36.1371144,31.0626613 L36.1241802,31.0626613 L35.6845851,32.9477142 Z M34.4107295,34.7168841 L35.5680065,30.0555666 L36.7126896,30.0555666 L37.8376309,34.7168841 L36.9843093,34.7168841 L36.7579595,33.7356167 L35.5229067,33.7356167 L35.2706884,34.7168841 L34.4107295,34.7168841 Z" id="Fill-15" fill="#FFFFFF"></path>
                <polygon id="Fill-17" fill="#FFFFFF" points="38.3231596 34.7169011 38.3231596 30.0555836 40.6511585 30.0555836 40.6511585 30.8433162 39.2154542 30.8433162 39.2154542 31.9149791 40.3405657 31.9149791 40.3405657 32.7025418 39.2154542 32.7025418 39.2154542 34.7169011"></polygon>
                <path d="M42.0092911,33.3353446 C42.0092911,33.8517206 42.2356408,33.9937708 42.5913333,33.9937708 C42.9470258,33.9937708 43.1732054,33.8517206 43.1732054,33.3353446 L43.1732054,31.4370382 C43.1732054,30.9206621 42.9470258,30.778612 42.5913333,30.778612 C42.2356408,30.778612 42.0092911,30.9206621 42.0092911,31.4370382 L42.0092911,33.3353446 Z M41.1169965,31.5536008 C41.1169965,30.4042861 41.7247371,29.9910493 42.5913333,29.9910493 C43.4577594,29.9910493 44.0655,30.4042861 44.0655,31.5536008 L44.0655,33.2191217 C44.0655,34.3680967 43.4577594,34.7813334 42.5913333,34.7813334 C41.7247371,34.7813334 41.1169965,34.3680967 41.1169965,33.2191217 L41.1169965,31.5536008 Z" id="Fill-19" fill="#FFFFFF"></path>
                <path d="M45.6826244,32.0828735 L46.1416209,32.0828735 C46.5362864,32.0828735 46.7754002,31.8889989 46.7754002,31.4370212 C46.7754002,30.9853833 46.5362864,30.7915086 46.1416209,30.7915086 L45.6826244,30.7915086 L45.6826244,32.0828735 Z M46.8853415,34.7169181 L46.1094554,32.8186117 L45.6826244,32.8186117 L45.6826244,34.7169181 L44.7903298,34.7169181 L44.7903298,30.0556006 L46.0834167,30.0556006 C47.1569613,30.0556006 47.6676948,30.5721465 47.6676948,31.4499348 C47.6676948,32.031049 47.4607465,32.4509125 46.962777,32.6381604 L47.8423075,34.7169181 L46.8853415,34.7169181 Z" id="Fill-21" fill="#FFFFFF"></path>
                <polygon id="Fill-23" fill="#FFFFFF" points="48.4377095 34.7169011 48.4377095 30.0555836 49.6856966 30.0555836 50.4939184 33.1156086 50.5068527 33.1156086 51.3150745 30.0555836 52.5630616 30.0555836 52.5630616 34.7169011 51.8001097 34.7169011 51.8001097 31.0497646 51.7873457 31.0497646 50.8366766 34.7169011 50.1642647 34.7169011 49.2137658 31.0497646 49.2006614 31.0497646 49.2006614 34.7169011"></polygon>
                <path d="M54.3745065,32.9477142 L55.2603339,32.9477142 L54.8270358,31.0626613 L54.8141015,31.0626613 L54.3745065,32.9477142 Z M53.1006508,34.7168841 L54.2579278,30.0555666 L55.4026109,30.0555666 L56.5275522,34.7168841 L55.6742306,34.7168841 L55.4478809,33.7356167 L54.2128281,33.7356167 L53.9606097,34.7168841 L53.1006508,34.7168841 Z" id="Fill-25" fill="#FFFFFF"></path>
                <path d="M59.7550276,32.1087518 L60.2335957,32.1087518 C60.6733609,32.1087518 60.8930734,31.8890499 60.8930734,31.4499858 C60.8930734,31.0112616 60.6733609,30.7915596 60.2335957,30.7915596 L59.7550276,30.7915596 L59.7550276,32.1087518 Z M58.862733,34.7169691 L58.862733,30.0556515 L60.1495229,30.0556515 C61.2487658,30.0556515 61.7855381,30.5721975 61.7855381,31.4499858 C61.7855381,32.3281139 61.2487658,32.84449 60.1495229,32.84449 L59.7550276,32.84449 L59.7550276,34.7169691 L58.862733,34.7169691 Z" id="Fill-27" fill="#FFFFFF"></path>
                <path d="M63.1253756,32.9477142 L64.0112031,32.9477142 L63.5779049,31.0626613 L63.5649707,31.0626613 L63.1253756,32.9477142 Z M61.85152,34.7168841 L63.0087969,30.0555666 L64.15348,30.0555666 L65.2784214,34.7168841 L64.4250998,34.7168841 L64.19875,33.7356167 L62.9636972,33.7356167 L62.7114789,34.7168841 L61.85152,34.7168841 Z" id="Fill-29" fill="#FFFFFF"></path>
                <path d="M66.6562788,32.0828735 L67.1154454,32.0828735 C67.5099407,32.0828735 67.7492248,31.8889989 67.7492248,31.4370212 C67.7492248,30.9853833 67.5099407,30.7915086 67.1154454,30.7915086 L66.6562788,30.7915086 L66.6562788,32.0828735 Z M67.8589959,34.7169181 L67.0831097,32.8186117 L66.6562788,32.8186117 L66.6562788,34.7169181 L65.7639842,34.7169181 L65.7639842,30.0556006 L67.0572412,30.0556006 C68.1306156,30.0556006 68.6415194,30.5721465 68.6415194,31.4499348 C68.6415194,32.031049 68.434571,32.4509125 67.9366015,32.6381604 L68.8159619,34.7169181 L67.8589959,34.7169181 Z" id="Fill-31" fill="#FFFFFF"></path>
                <path d="M70.316814,32.9477142 L71.2026414,32.9477142 L70.7693433,31.0626613 L70.756409,31.0626613 L70.316814,32.9477142 Z M69.0429583,34.7168841 L70.2002353,30.0555666 L71.3449184,30.0555666 L72.4698597,34.7168841 L71.6165381,34.7168841 L71.3901884,33.7356167 L70.1551356,33.7356167 L69.9029173,34.7168841 L69.0429583,34.7168841 Z" id="Fill-33" fill="#FFFFFF"></path>
                <polygon id="Fill-35" fill="#FFFFFF" points="74.7533204 34.7169011 74.7533204 30.0555836 75.645615 30.0555836 75.645615 33.9289986 77.0811491 33.9289986 77.0811491 34.7169011"></polygon>
                <path d="M78.5817289,32.9477142 L79.4675563,32.9477142 L79.0342582,31.0626613 L79.0213239,31.0626613 L78.5817289,32.9477142 Z M77.3078732,34.7168841 L78.4651502,30.0555666 L79.6098333,30.0555666 L80.7347746,34.7168841 L79.8814531,34.7168841 L79.6551033,33.7356167 L78.4200505,33.7356167 L78.1678322,34.7168841 L77.3078732,34.7168841 Z" id="Fill-37" fill="#FFFFFF"></path>
                <path d="M85.2489548,34.3292877 C85.009841,34.6004744 84.7509853,34.7812655 84.4150346,34.7812655 C83.5484384,34.7812655 82.9406978,34.3681986 82.9406978,33.2192237 L82.9406978,31.5535329 C82.9406978,30.4042181 83.5484384,29.9909813 84.4150346,29.9909813 C85.3265604,29.9909813 85.8180628,30.5139841 85.8503985,31.5727334 L84.9581039,31.5727334 C84.9581039,30.9724187 84.7382212,30.7787139 84.4150346,30.7787139 C84.0593421,30.7787139 83.8329924,30.9205942 83.8329924,31.4371401 L83.8329924,33.3352766 C83.8329924,33.8516526 84.0593421,33.9937028 84.4150346,33.9937028 C84.7509853,33.9937028 84.9581039,33.7485134 84.9581039,33.3483602 L84.9581039,33.0642599 L84.3307917,33.0642599 L84.3307917,32.3281819 L85.8503985,32.3281819 L85.8503985,34.7168671 L85.3847647,34.7168671 L85.2489548,34.3292877 Z" id="Fill-39" fill="#FFFFFF"></path>
                <polygon id="Fill-41" fill="#FFFFFF" points="86.6137928 34.7169011 86.6137928 30.0555836 89.0580299 30.0555836 89.0580299 30.8433162 87.5060874 30.8433162 87.5060874 31.9149791 88.6894032 31.9149791 88.6894032 32.7025418 87.5060874 32.7025418 87.5060874 33.9289986 89.1227013 33.9289986 89.1227013 34.7169011"></polygon>
                <polygon id="Fill-43" fill="#FFFFFF" points="89.8990469 34.7169011 89.8990469 30.0555836 90.8754143 30.0555836 92.1169343 32.8185947 92.1298685 32.8185947 92.1298685 30.0555836 92.9447277 30.0555836 92.9447277 34.7169011 92.0912359 34.7169011 90.7266702 31.7081908 90.7139061 31.7081908 90.7139061 34.7169011"></polygon>
                <polygon id="Fill-45" fill="#FFFFFF" points="93.7989002 34.7169011 93.7989002 30.0555836 96.2431373 30.0555836 96.2431373 30.8433162 94.6911948 30.8433162 94.6911948 31.9149791 95.8745106 31.9149791 95.8745106 32.7025418 94.6911948 32.7025418 94.6911948 33.9289986 96.3078087 33.9289986 96.3078087 34.7169011"></polygon>
                <path d="M97.9247969,32.0828735 L98.3839636,32.0828735 C98.7784589,32.0828735 99.0175728,31.8889989 99.0175728,31.4370212 C99.0175728,30.9853833 98.7784589,30.7915086 98.3839636,30.7915086 L97.9247969,30.7915086 L97.9247969,32.0828735 Z M99.1275141,34.7169181 L98.3516279,32.8186117 L97.9247969,32.8186117 L97.9247969,34.7169181 L97.0325023,34.7169181 L97.0325023,30.0556006 L98.3255892,30.0556006 C99.3991338,30.0556006 99.9098674,30.5721465 99.9098674,31.4499348 C99.9098674,32.031049 99.702919,32.4509125 99.2051197,32.6381604 L100.08448,34.7169181 L99.1275141,34.7169181 Z" id="Fill-47" fill="#FFFFFF"></path>
                <path d="M101.584992,32.9477142 L102.470819,32.9477142 L102.037691,31.0626613 L102.024757,31.0626613 L101.584992,32.9477142 Z M100.311306,34.7168841 L101.468583,30.0555666 L102.613096,30.0555666 L103.738208,34.7168841 L102.884716,34.7168841 L102.658536,33.7356167 L101.423484,33.7356167 L101.171095,34.7168841 L100.311306,34.7168841 Z" id="Fill-49" fill="#FFFFFF"></path>
                <path d="M105.038613,33.3353446 C105.038613,33.8517206 105.264962,33.9937708 105.620655,33.9937708 C105.976347,33.9937708 106.202697,33.8517206 106.202697,33.3353446 L106.202697,33.025417 L107.094992,33.025417 L107.094992,33.2191217 C107.094992,34.3680967 106.487081,34.7813334 105.620655,34.7813334 C104.754059,34.7813334 104.146318,34.3680967 104.146318,33.2191217 L104.146318,31.5536008 C104.146318,30.4042861 104.754059,29.9910493 105.620655,29.9910493 C106.487081,29.9910493 107.094992,30.4042861 107.094992,31.5536008 L107.094992,31.5665145 L106.202697,31.5665145 L106.202697,31.4370382 C106.202697,30.9206621 105.976347,30.778612 105.620655,30.778612 C105.264962,30.778612 105.038613,30.9206621 105.038613,31.4370382 L105.038613,33.3353446 Z" id="Fill-51" fill="#FFFFFF"></path>
                <mask id="mask-2" fill="white">
                    <use xlink:href="#path-1"></use>
                </mask>
                <g id="Clip-54"></g>
                <polygon id="Fill-53" fill="#FFFFFF" mask="url(#mask-2)" points="107.87115 34.7168162 108.763445 34.7168162 108.763445 30.0554986 107.87115 30.0554986"></polygon>
                <path d="M112.068168,28.8483953 L111.117499,29.7909217 L110.464489,29.7909217 L111.065762,28.8483953 L112.068168,28.8483953 Z M110.432153,33.3353786 C110.432153,33.8517546 110.658503,33.9938047 111.014195,33.9938047 C111.369718,33.9938047 111.596238,33.8517546 111.596238,33.3353786 L111.596238,31.4370721 C111.596238,30.9206961 111.369718,30.778646 111.014195,30.778646 C110.658503,30.778646 110.432153,30.9206961 110.432153,31.4370721 L110.432153,33.3353786 Z M109.539859,31.5534649 C109.539859,30.4041501 110.147599,29.9910833 111.014195,29.9910833 C111.880451,29.9910833 112.488532,30.4041501 112.488532,31.5534649 L112.488532,33.2191557 C112.488532,34.3681306 111.880451,34.7813674 111.014195,34.7813674 C110.147599,34.7813674 109.539859,34.3681306 109.539859,33.2191557 L109.539859,31.5534649 Z" id="Fill-55" fill="#FFFFFF" mask="url(#mask-2)"></path>
                <polygon id="Fill-56" fill="#FFFFFF" mask="url(#mask-2)" points="113.264963 34.7169011 113.264963 30.0555836 114.24133 30.0555836 115.48285 32.8185947 115.495785 32.8185947 115.495785 30.0555836 116.310644 30.0555836 116.310644 34.7169011 115.457152 34.7169011 114.092586 31.7081908 114.079822 31.7081908 114.079822 34.7169011"></polygon>
                <path d="M119.854754,33.9290496 L120.165176,33.9290496 C120.656678,33.9290496 120.941232,33.6967738 120.941232,32.9994368 L120.941232,31.7729799 C120.941232,31.1145538 120.72135,30.8433671 120.165176,30.8433671 L119.854754,30.8433671 L119.854754,33.9290496 Z M118.962459,30.0556345 L120.203979,30.0556345 C121.225616,30.0556345 121.794554,30.4946986 121.833527,31.6696708 L121.833527,33.102746 C121.794554,34.277888 121.225616,34.7169521 120.203979,34.7169521 L118.962459,34.7169521 L118.962459,30.0556345 Z" id="Fill-57" fill="#FFFFFF" mask="url(#mask-2)"></path>
                <polygon id="Fill-58" fill="#FFFFFF" mask="url(#mask-2)" points="122.558306 34.7169011 122.558306 30.0555836 125.002543 30.0555836 125.002543 30.8433162 123.4506 30.8433162 123.4506 31.9149791 124.633916 31.9149791 124.633916 32.7025418 123.4506 32.7025418 123.4506 33.9289986 125.067214 33.9289986 125.067214 34.7169011"></polygon>
                <path d="M128.533837,32.1087518 L129.012576,32.1087518 C129.452171,32.1087518 129.671883,31.8890499 129.671883,31.4499858 C129.671883,31.0112616 129.452171,30.7915596 129.012576,30.7915596 L128.533837,30.7915596 L128.533837,32.1087518 Z M127.641543,34.7169691 L127.641543,30.0556515 L128.928333,30.0556515 C130.027576,30.0556515 130.564348,30.5721975 130.564348,31.4499858 C130.564348,32.3281139 130.027576,32.84449 128.928333,32.84449 L128.533837,32.84449 L128.533837,34.7169691 L127.641543,34.7169691 Z" id="Fill-59" fill="#FFFFFF" mask="url(#mask-2)"></path>
                <path d="M131.904015,32.9477142 L132.789843,32.9477142 L132.356715,31.0626613 L132.343781,31.0626613 L131.904015,32.9477142 Z M130.63033,34.7168841 L131.787607,30.0555666 L132.93212,30.0555666 L134.057231,34.7168841 L133.203739,34.7168841 L132.97756,33.7356167 L131.742507,33.7356167 L131.490119,34.7168841 L130.63033,34.7168841 Z" id="Fill-60" fill="#FFFFFF" mask="url(#mask-2)"></path>
                <polygon id="Fill-61" fill="#FFFFFF" mask="url(#mask-2)" points="134.536276 30.0555666 137.12279 30.0555666 137.12279 30.8045582 135.357432 33.9289816 137.161593 33.9289816 137.161593 34.7168841 134.355366 34.7168841 134.355366 33.9616056 136.120554 30.8432992 134.536276 30.8432992"></polygon>
                <path d="M13.1772494,11.8039928 L14.8764043,11.8039928 C17.7435581,11.8039928 18.6285346,10.9204273 18.6285346,7.88113203 C18.6285346,4.84166685 17.7435581,3.95810139 14.8764043,3.95810139 L13.1772494,3.95810139 L13.1772494,11.8039928 Z M8.78793603,25.8698451 L8.78793603,0.353324234 L15.0887987,0.353324234 C20.5046849,0.353324234 23.017848,2.43853872 23.017848,7.88113203 C23.017848,13.3235554 20.5046849,15.4087699 15.0887987,15.4087699 L13.1772494,15.4087699 L13.1772494,25.8698451 L8.78793603,25.8698451 Z" id="Fill-62" fill="#FFFFFF" mask="url(#mask-2)"></path>
                <path d="M30.4521444,16.3983802 L33.9918803,16.3983802 L32.2573263,5.44250836 L32.1865282,5.44250836 L30.4521444,16.3983802 Z M29.0361819,25.8698621 L24.7884648,25.8698621 L29.4963697,0.353341226 L34.9476549,0.353341226 L39.6553897,25.8698621 L35.4076725,25.8698621 L34.6290634,20.2152131 L29.8149613,20.2152131 L29.0361819,25.8698621 Z" id="Fill-63" fill="#FFFFFF" mask="url(#mask-2)"></path>
                <path d="M51.0535129,8.87060641 L51.0535129,6.89158969 C51.0535129,4.73568997 50.0625094,3.81695181 48.9297394,3.81695181 C47.1597864,3.81695181 46.5934014,4.73568997 46.5934014,6.64402145 L46.5934014,19.5790799 C46.5934014,21.4875813 47.1597864,22.4063195 48.9297394,22.4063195 C50.5226972,22.4063195 51.0535129,21.4875813 51.0535129,19.8264783 L51.0535129,16.7518404 L55.4428263,16.7518404 L55.4428263,19.6851078 C55.4428263,23.289885 53.3190528,26.2233223 48.9297394,26.2233223 C44.3278615,26.2233223 42.204088,23.289885 42.204088,19.6851078 L42.204088,6.53799359 C42.204088,2.93338635 44.3278615,-5.09749304e-05 48.9297394,-5.09749304e-05 C53.3190528,-5.09749304e-05 55.4428263,3.18078468 55.4428263,6.99761755 L55.4428263,8.87060641 L51.0535129,8.87060641 Z" id="Fill-64" fill="#FFFFFF" mask="url(#mask-2)"></path>
                <polygon id="Fill-65" fill="#FFFFFF" mask="url(#mask-2)" points="60.5053345 25.8699471 64.8946479 25.8699471 64.8946479 0.353426184 60.5053345 0.353426184"></polygon>
                <polygon id="Fill-66" fill="#FFFFFF" mask="url(#mask-2)" points="69.7445915 25.8698791 69.7445915 0.353358217 81.9923263 0.353358217 81.9923263 4.17019109 74.1339049 4.17019109 74.1339049 10.7437482 80.0099789 10.7437482 80.0099789 14.5605811 74.1339049 14.5605811 74.1339049 25.8698791"></polygon>
                <polygon id="Fill-67" fill="#FFFFFF" mask="url(#mask-2)" points="86.062946 25.8699471 90.4522594 25.8699471 90.4522594 0.353426184 86.062946 0.353426184"></polygon>
                <path d="M103.30217,6.64410641 C103.125174,4.45286407 101.957005,3.81686685 100.965832,3.81686685 C99.5498691,3.81686685 98.77126,4.73577493 98.77126,6.32602284 C98.77126,10.672995 107.691483,12.7582095 107.691483,19.6850228 C107.691483,23.8907944 104.859558,26.2234072 100.753437,26.2234072 C96.6825452,26.2234072 94.3463773,22.9718864 94.1695522,19.1550535 L98.3464712,18.554229 C98.5234665,21.1340702 99.5498691,22.4064045 100.965832,22.4064045 C102.487991,22.4064045 103.514394,21.5935242 103.514394,20.0737916 C103.514394,15.020137 94.5941708,13.6771175 94.5941708,6.36136546 C94.5941708,2.29713426 97.072105,-0.000135933148 101.39062,-0.000135933148 C104.965755,-0.000135933148 107.089699,2.57987521 107.479089,6.18465237 L103.30217,6.64410641 Z" id="Fill-68" fill="#FFFFFF" mask="url(#mask-2)"></path>
                <polygon id="Fill-69" fill="#FFFFFF" mask="url(#mask-2)" points="113.567438 4.17019109 109.319721 4.17019109 109.319721 0.353358217 122.204468 0.353358217 122.204468 4.17019109 117.956751 4.17019109 117.956751 25.8698791 113.567438 25.8698791"></polygon>
                <path d="M128.116333,16.3983802 L131.656239,16.3983802 L129.921685,5.44250836 L129.850887,5.44250836 L128.116333,16.3983802 Z M126.70054,25.8698621 L122.452823,25.8698621 L127.160728,0.353341226 L132.611843,0.353341226 L137.319748,25.8698621 L133.072031,25.8698621 L132.293252,20.2152131 L127.47932,20.2152131 L126.70054,25.8698621 Z" id="Fill-70" fill="#FFFFFF" mask="url(#mask-2)"></path>
                <path d="M140.576479,25.8699471 L144.753398,25.8699471 L144.753398,21.699688 L140.576479,21.699688 L140.576479,25.8699471 Z M140.434883,0.353426184 L144.894994,0.353426184 L144.116215,18.3774819 L141.213492,18.3774819 L140.434883,0.353426184 Z" id="Fill-71" fill="#FFFFFF" mask="url(#mask-2)"></path>
                <path d="M0.141426056,4.52283565 L4.31289906,4.52283565 L4.31289906,0.358183844 L0.141426056,0.358183844 L0.141426056,4.52283565 Z M4.45415493,25.8405515 L0,25.8405515 L0.777588028,7.84045404 L3.6765669,7.84045404 L4.45415493,25.8405515 Z" id="Fill-72" fill="#FFFFFF" mask="url(#mask-2)"></path>
                <path d="M61.680277,47.2565471 L61.680277,49.3161042 C61.680277,49.597146 61.8028122,49.7442936 62.0764742,49.7442936 C62.3501362,49.7442936 62.4767559,49.597146 62.4767559,49.3161042 L62.4767559,47.2565471 L63.0404178,47.2565471 L63.0404178,49.3201822 C63.0404178,49.9685833 62.6564742,50.241639 62.0764742,50.241639 C61.496304,50.241639 61.1164448,49.9685833 61.1164448,49.3201822 L61.1164448,47.2565471 L61.680277,47.2565471 Z" id="Fill-73" fill="#FFFFFF" mask="url(#mask-2)"></path>
                <polygon id="Fill-74" fill="#FFFFFF" mask="url(#mask-2)" points="63.6120106 50.200876 63.6120106 47.2565641 64.2289413 47.2565641 65.0131667 49.0017758 65.0213357 49.0017758 65.0213357 47.2565641 65.5361538 47.2565641 65.5361538 50.200876 64.9968286 50.200876 64.1348275 48.3005306 64.1266585 48.3005306 64.1266585 50.200876"></polygon>
                <path d="M67.8068674,48.5531454 L68.1091209,48.5531454 C68.3868674,48.5531454 68.5259108,48.4148334 68.5259108,48.1373599 C68.5259108,47.8598864 68.3868674,47.7212345 68.1091209,47.7212345 L67.8068674,47.7212345 L67.8068674,48.5531454 Z M67.2430352,50.2008251 L67.2430352,47.2565131 L68.0560223,47.2565131 C68.7505587,47.2565131 69.0895728,47.5827526 69.0895728,48.1373599 C69.0895728,48.6917972 68.7505587,49.0180368 68.0560223,49.0180368 L67.8068674,49.0180368 L67.8068674,50.2008251 L67.2430352,50.2008251 Z" id="Fill-75" fill="#FFFFFF" mask="url(#mask-2)"></path>
                <path d="M70.0450751,48.5368844 L70.3350751,48.5368844 C70.5844002,48.5368844 70.735527,48.4147145 70.735527,48.129085 C70.735527,47.8436253 70.5844002,47.7211156 70.3350751,47.7211156 L70.0450751,47.7211156 L70.0450751,48.5368844 Z M70.8049636,50.200876 L70.3148228,49.0017758 L70.0450751,49.0017758 L70.0450751,50.200876 L69.4814131,50.200876 L69.4814131,47.2565641 L70.2983146,47.2565641 C70.9765129,47.2565641 71.299189,47.5828036 71.299189,48.1372409 C71.299189,48.5044304 71.1684847,48.7695 70.8539777,48.8875919 L71.4094707,50.200876 L70.8049636,50.200876 Z" id="Fill-76" fill="#FFFFFF" mask="url(#mask-2)"></path>
                <path d="M72.2669959,49.3280663 C72.2669959,49.6546457 72.4101238,49.7441916 72.6346015,49.7441916 C72.8592494,49.7441916 73.0023773,49.6546457 73.0023773,49.3280663 L73.0023773,48.128966 C73.0023773,47.8027265 72.8592494,47.7131805 72.6346015,47.7131805 C72.4101238,47.7131805 72.2669959,47.8027265 72.2669959,48.128966 L72.2669959,49.3280663 Z M71.7033339,48.2027097 C71.7033339,47.4766568 72.0872776,47.2156652 72.6346015,47.2156652 C73.1820957,47.2156652 73.5660393,47.4766568 73.5660393,48.2027097 L73.5660393,49.2546624 C73.5660393,49.9808852 73.1820957,50.241707 72.6346015,50.241707 C72.0872776,50.241707 71.7033339,49.9808852 71.7033339,49.2546624 L71.7033339,48.2027097 Z" id="Fill-77" fill="#FFFFFF" mask="url(#mask-2)"></path>
                <polygon id="Fill-78" fill="#FFFFFF" mask="url(#mask-2)" points="74.9138756 48.4432944 75.3917629 47.2565981 75.9921854 47.2565981 75.1873674 49.0101357 75.1873674 50.20091 74.6238756 50.20091 74.6238756 49.0101357 73.8190575 47.2565981 74.4196502 47.2565981"></polygon>
                <polygon id="Fill-79" fill="#FFFFFF" mask="url(#mask-2)" points="76.2943198 50.200876 76.2943198 47.2565641 77.8382635 47.2565641 77.8382635 47.7540794 76.8579818 47.7540794 76.8579818 48.4310265 77.6054466 48.4310265 77.6054466 48.9285418 76.8579818 48.9285418 76.8579818 49.7033607 77.8792788 49.7033607 77.8792788 50.200876"></polygon>
                <path d="M78.8511362,49.3280663 C78.8511362,49.6546457 78.9942641,49.7441916 79.2187418,49.7441916 C79.4433897,49.7441916 79.5865176,49.6546457 79.5865176,49.3280663 L79.5865176,49.1326624 L80.1501796,49.1326624 L80.1501796,49.2546624 C80.1501796,49.9808852 79.7662359,50.241707 79.2187418,50.241707 C78.6714178,50.241707 78.2874742,49.9808852 78.2874742,49.2546624 L78.2874742,48.2027097 C78.2874742,47.4766568 78.6714178,47.2156652 79.2187418,47.2156652 C79.7662359,47.2156652 80.1501796,47.4766568 80.1501796,48.2027097 L80.1501796,48.2106958 L79.5865176,48.2106958 L79.5865176,48.128966 C79.5865176,47.8027265 79.4433897,47.7131805 79.2187418,47.7131805 C78.9942641,47.7131805 78.8511362,47.8027265 78.8511362,48.128966 L78.8511362,49.3280663 Z" id="Fill-80" fill="#FFFFFF" mask="url(#mask-2)"></path>
                <polygon id="Fill-81" fill="#FFFFFF" mask="url(#mask-2)" points="82.3148832 47.2565471 82.3148832 47.7540624 81.6572776 47.7540624 81.6572776 50.2008591 81.0934454 50.2008591 81.0934454 47.7540624 80.4358398 47.7540624 80.4358398 47.2565471"></polygon>
                <path d="M83.1644947,49.3280663 C83.1644947,49.6546457 83.3074525,49.7441916 83.5321004,49.7441916 C83.7567482,49.7441916 83.899706,49.6546457 83.899706,49.3280663 L83.899706,48.128966 C83.899706,47.8027265 83.7567482,47.7131805 83.5321004,47.7131805 C83.3074525,47.7131805 83.1644947,47.8027265 83.1644947,48.128966 L83.1644947,49.3280663 Z M82.6006626,48.2027097 C82.6006626,47.4766568 82.9846062,47.2156652 83.5321004,47.2156652 C84.0794243,47.2156652 84.4635381,47.4766568 84.4635381,48.2027097 L84.4635381,49.2546624 C84.4635381,49.9808852 84.0794243,50.241707 83.5321004,50.241707 C82.9846062,50.241707 82.6006626,49.9808852 82.6006626,49.2546624 L82.6006626,48.2027097 Z" id="Fill-82" fill="#FFFFFF" mask="url(#mask-2)"></path>
                <path d="M86.6197664,49.7034117 L86.8158228,49.7034117 C87.1264155,49.7034117 87.3061338,49.5567738 87.3061338,49.1160106 L87.3061338,48.3410217 C87.3061338,47.9252362 87.1672606,47.7539604 86.8158228,47.7539604 L86.6197664,47.7539604 L86.6197664,49.7034117 Z M86.0559343,47.256615 L86.8405,47.256615 C87.4856819,47.256615 87.8452887,47.5335788 87.869966,48.2761136 L87.869966,49.1814284 C87.8452887,49.9237933 87.4856819,50.200927 86.8405,50.200927 L86.0559343,50.200927 L86.0559343,47.256615 Z" id="Fill-83" fill="#FFFFFF" mask="url(#mask-2)"></path>
                <polygon id="Fill-84" fill="#FFFFFF" mask="url(#mask-2)" points="88.3269712 50.200876 88.3269712 47.2565641 89.8709149 47.2565641 89.8709149 47.7540794 88.8908034 47.7540794 88.8908034 48.4310265 89.6382682 48.4310265 89.6382682 48.9285418 88.8908034 48.9285418 88.8908034 49.7033607 89.9119302 49.7033607 89.9119302 50.200876"></polygon>
                <path d="M79.6999137,54.2908156 C79.9334114,54.5562251 80.444145,54.5450106 80.7484407,54.7395649 C80.3382881,54.845083 79.8219384,54.8447432 79.4504184,54.9886624 C79.5373844,54.759785 79.6163515,54.5230914 79.6999137,54.2908156" id="Fill-85" fill="#FFFFFF" mask="url(#mask-2)"></path>
                <path d="M76.8042195,55.213071 C76.6816843,55.7719262 76.4243603,56.4121713 76.2800411,57.0323663 C77.0732864,57.0435808 77.9099296,56.8819903 78.7264906,56.8332242 C78.8366021,56.6855669 78.8914026,56.4828565 78.9511385,56.284734 C79.1150293,56.5163301 79.2300763,56.9487674 79.0758862,57.2819735 C77.8374296,57.2639624 76.9463263,58.2771741 75.7308451,58.2785334 C75.1864143,58.2795529 74.7241843,57.966227 74.9818486,57.3565669 C75.3460505,56.4954304 76.2487265,55.8940961 76.8042195,55.213071" id="Fill-86" fill="#FFFFFF" mask="url(#mask-2)"></path>
                <path d="M80.5987095,53.2938819 C80.28199,53.3327928 80.0571719,53.677893 79.8498832,53.7924167 C79.8650299,53.7910574 79.8793257,53.7886786 79.8745604,53.767439 C79.9125123,53.5975226 79.9846719,53.4617593 79.9994783,53.2690741 C78.3379349,52.6849014 76.721321,53.5390713 75.5311978,54.1912106 C74.5796778,54.7123443 73.7302705,55.324893 73.1346133,55.9359125 C73.3497306,55.5695727 73.5788034,55.2068011 73.8335745,54.8642496 C74.09226,54.5164306 74.3803879,54.2019153 74.6074184,53.8921577 C74.1101297,53.7625114 73.6113093,53.6247092 73.1095957,53.5181716 C72.3961684,53.366946 71.4039736,53.1156396 70.8130816,53.4435783 C70.6420428,53.5383916 70.5023187,53.7711772 70.338598,53.7924167 C70.2036391,53.8099181 69.9808633,53.7113666 69.8144196,53.6928457 C69.2044665,53.625049 68.6433574,53.6821409 68.0919489,53.7924167 C67.5755992,53.8958958 66.4840147,54.0790657 66.3444607,54.5651967 C66.2549419,54.8764836 66.454402,55.1792747 66.4195135,55.4871632 C66.3847952,55.7911437 66.0932635,56.1924864 65.9450299,56.4342774 C65.7634396,56.7311214 65.5791262,56.9944919 65.2710863,57.1322942 C65.0842201,56.2037008 65.2874243,55.3780769 65.4458691,54.5898345 C65.5433867,54.1045532 65.7408046,53.6085671 65.5706168,53.1197175 C65.0947717,53.0536201 64.6938093,53.4296451 64.2225593,53.6177426 C63.3374126,53.9715086 62.3506637,54.2941799 62.2255757,55.3126591 C62.155118,55.8864669 62.3712565,56.2514474 62.5251062,56.658737 C62.8554407,57.5338067 63.2642318,58.2748123 63.7482459,58.9515894 C63.6166907,59.1942301 63.3055874,59.2576089 63.2739325,59.5996507 C63.4146778,59.7981131 63.7082518,59.82479 63.9979114,59.8241103 C64.8355757,59.8217315 65.5221133,59.4008485 66.1448304,59.0515003 C67.4995252,58.2907844 68.4095194,57.1193805 69.3651238,56.0108457 C69.5330992,55.8157816 69.671632,55.5804474 69.8893022,55.4626953 C70.1040792,56.4470212 69.6867788,56.973932 69.3901414,57.7803554 C69.275605,58.0909627 68.9144665,59.0630546 69.0904407,59.5247175 C69.2834337,60.0310685 70.9264266,60.0529877 71.3621074,59.7245393 C71.5816496,59.5588708 71.6691262,59.1845448 71.7867259,58.9515894 C71.9371719,58.6525365 72.0673656,58.3937538 72.1859865,58.1291939 C72.1931344,59.2214167 73.0049302,59.5422189 73.8834396,59.7743248 C75.7503996,60.2670825 77.6328468,59.3869153 78.651591,58.7770852 C78.5244607,59.586737 78.8391379,59.668127 79.4751297,59.7991326 C81.1216966,60.1386256 82.7796661,59.7473081 84.1187036,59.4254864 C85.3455874,59.1301716 86.3328468,58.922024 86.5149478,57.7054223 C86.3182107,57.5358457 85.8277295,57.5564056 85.4914384,57.6058513 C84.501456,57.7506201 83.542618,58.2503443 82.2212799,58.1541716 C81.9808046,58.1365003 81.4596896,58.0522217 81.4225886,57.9049042 C81.3645546,57.6758568 81.7770898,57.5142663 82.1215499,57.4561549 C83.1128938,57.2892969 84.5443433,57.4585337 85.3416731,57.1567621 C85.7251062,57.0125031 86.1868257,56.5960379 86.1405346,56.1353944 C86.1092201,55.8234279 85.7026414,55.6608178 85.3168257,55.6368596 C84.2243903,55.568893 83.4435687,56.2054 82.2963327,55.9856981 C82.4396309,55.8050769 82.46601,55.5070435 82.6455581,55.3627844 C83.4839032,55.3451131 84.2984219,55.5114613 85.0920076,55.4626953 C86.1951649,55.3938791 86.8177119,54.9293276 87.3388269,54.3160992 C87.395159,54.2496618 87.5348832,54.1786368 87.4885921,54.0664919 C85.5724478,53.7761047 82.9614266,53.004854 80.5987095,53.2938819 M89.2859454,53.3934529 C89.3160687,53.5146033 89.1814501,53.6298067 89.1113327,53.7176535 C88.5240147,54.4550908 87.8723656,55.3265922 87.0893316,55.886127 C87.1460041,56.179063 87.1162212,56.5686813 87.0142788,56.7834557 C87.2186743,57.0446173 87.4363445,57.2925253 87.5634748,57.6306591 C87.3970311,58.515244 87.0090029,59.2015365 86.3902001,59.649776 C85.7862036,60.086971 84.9698128,60.2584167 84.0434806,60.4718318 C82.2525945,60.8847287 79.3061332,61.290829 77.9776473,60.2229042 C76.5388797,61.0651799 73.6312212,61.1761354 72.2857165,60.1731187 C71.329091,61.3812245 67.5556872,61.2753666 68.1169665,58.8768262 C67.4174947,59.405946 66.3832635,60.1353972 65.3958339,60.546595 C64.251321,61.0237203 62.0834689,60.9700267 62.3002881,59.3505532 C62.3261567,59.1576981 62.4078468,59.0481019 62.5000886,58.8768262 C62.1653292,58.2935031 61.9536156,57.8892719 61.7512623,57.3812217 C61.5572482,56.8952607 61.2611215,56.3415031 61.2270839,55.6618373 C61.1542435,54.216868 62.2820781,53.3005086 63.3988504,52.8704501 C63.9689795,52.6507482 64.4324008,52.3328345 64.9964032,52.1724334 C65.8398539,51.9328513 66.5634924,52.3962134 66.6189736,53.1695031 C67.5995957,52.878776 68.7938034,52.5584836 70.0891027,52.7455616 C71.1207811,51.9454251 73.1342729,52.4400518 74.4576532,52.8203248 C74.7570135,52.9063025 75.159848,53.128893 75.3812623,53.1197175 C75.5691496,53.1117315 75.9083339,52.8578763 76.1054114,52.7705393 C77.0337858,52.3596813 78.2479055,51.9219766 79.5752001,52.1472858 C79.8267377,52.1901047 80.0566614,52.3228095 80.3240264,52.3471075 C80.5056168,52.3632496 80.727882,52.3063276 80.9230874,52.2969822 C84.0252705,52.1462663 86.6073597,52.9773276 89.2859454,53.3934529" id="Fill-87" fill="#FFFFFF" mask="url(#mask-2)"></path>
            </g>
        </g>
    </g>
</svg>