<?xml version="1.0" encoding="UTF-8" standalone="no"?>
<svg width="254px" height="56px" viewBox="0 0 254 56" version="1.1" xmlns="http://www.w3.org/2000/svg" xmlns:xlink="http://www.w3.org/1999/xlink">
    <!-- Generator: Sketch 41.2 (35397) - http://www.bohemiancoding.com/sketch -->
    <title>Group 11</title>
    <desc>Created with Sketch.</desc>
    <defs>
        <polygon id="path-1" points="0 55.9481622 253.42472 55.9481622 253.42472 0.756378378 0 0.756378378"></polygon>
    </defs>
    <g id="Page-1" stroke="none" stroke-width="1" fill="none" fill-rule="evenodd">
        <g id="Group-11">
            <polygon id="Fill-1" fill="#FFFFFF" points="78.7536071 53.3055676 83.4805774 53.3055676 83.4805774 36.3315135 78.7536071 36.3315135"></polygon>
            <path d="M92.6832393,43.8402054 L92.6832393,53.3057189 L87.956269,53.3057189 L87.956269,36.3316649 L92.6832393,36.3316649 L92.6832393,38.2250703 C94.1119893,36.7728541 95.7199,36.0478811 97.5047036,36.0478811 C99.291019,36.0478811 100.787805,36.6782595 101.997329,37.939773 C103.203829,39.2035568 103.809346,40.8865838 103.809346,42.9888541 L103.809346,53.3057189 L99.0808643,53.3057189 L99.0808643,43.7145838 C99.0808643,41.1075568 98.1245845,39.8013946 96.2135369,39.8013946 C95.2685964,39.8013946 94.4423405,40.1442054 93.7393048,40.8275568 C93.0347571,41.5116649 92.6832393,42.5151243 92.6832393,43.8402054 Z" id="Fill-2" fill="#FFFFFF"></path>
            <path d="M116.22662,49.361427 C117.801269,49.361427 119.219436,48.5736432 120.480364,46.9958054 L123.285704,50.1499676 C121.099489,52.4225081 118.736382,53.5584 116.19487,53.5584 C113.65109,53.5584 111.50343,52.7532108 109.748864,51.1443459 C107.995055,49.5347243 107.117394,47.4324541 107.117394,44.8345081 C107.117394,42.2373189 108.004882,40.1229405 109.78137,38.4936432 C111.556346,36.8628324 113.661674,36.0478054 116.09962,36.0478054 C117.31746,36.0478054 118.552686,36.3005622 119.803031,36.8053189 C121.051864,37.3100757 122.151019,38.0569946 123.09596,39.0453189 L120.637602,42.2622919 C120.091805,41.6122378 119.424299,41.1074811 118.637352,40.7487784 C117.848894,40.3908324 117.066483,40.2122378 116.289364,40.2122378 C115.048846,40.2122378 113.982198,40.6178595 113.090174,41.4268324 C112.197394,42.2373189 111.751382,43.3626162 111.751382,44.8034811 C111.751382,46.2435892 112.197394,47.3643459 113.090174,48.1627243 C113.982198,48.9626162 115.029192,49.361427 116.22662,49.361427" id="Fill-4" fill="#FFFFFF"></path>
            <mask id="mask-2" fill="white">
                <use xlink:href="#path-1"></use>
            </mask>
            <g id="Clip-7"></g>
            <path d="M126.436815,53.3055676 L131.163786,53.3055676 L131.163786,36.3315135 L126.436815,36.3315135 L126.436815,53.3055676 Z M126.830667,34.170973 C126.294696,33.6344324 126.026333,32.9775676 126.026333,32.1988649 C126.026333,31.4209189 126.294696,30.7625405 126.830667,30.2275135 C127.366637,29.690973 128.02356,29.4223243 128.799923,29.4223243 C129.577798,29.4223243 130.233964,29.690973 130.769935,30.2275135 C131.305905,30.7625405 131.574268,31.4209189 131.574268,32.1988649 C131.574268,32.9775676 131.305905,33.6344324 130.769935,34.170973 C130.233964,34.7067568 129.577798,34.9746486 128.799923,34.9746486 C128.02356,34.9746486 127.366637,34.7067568 126.830667,34.170973 L126.830667,34.170973 Z" id="Fill-6" fill="#FFFFFF" mask="url(#mask-2)"></path>
            <path d="M139.452955,44.8504 C139.452955,46.2178595 139.862681,47.3371027 140.681377,48.2096432 C141.50083,49.0829405 142.456354,49.5195892 143.548705,49.5195892 C144.641812,49.5195892 145.571633,49.0829405 146.338169,48.2096432 C147.105461,47.3371027 147.488729,46.2125622 147.488729,44.8345081 C147.488729,43.4564541 147.105461,42.3107243 146.338169,41.3965622 C145.571633,40.4808865 144.631229,40.0238054 143.518467,40.0238054 C142.404193,40.0238054 141.448669,40.485427 140.649627,41.4116973 C139.852098,42.3372108 139.452955,43.4829405 139.452955,44.8504 M142.430651,53.5584 C140.423598,53.5584 138.633502,52.7062919 137.058098,51.0020757 C135.481937,49.2986162 134.694235,47.1842378 134.694235,44.6604541 C134.694235,42.1366703 135.46077,40.0699676 136.994598,38.4618595 C138.526913,36.8529946 140.323812,36.0478054 142.383026,36.0478054 C144.442996,36.0478054 146.122723,36.7727784 147.425985,38.2249946 L147.425985,29.8961297 L152.153711,29.8961297 L152.153711,53.3056432 L147.425985,53.3056432 L147.425985,51.0656432 C146.102312,52.7274811 144.436193,53.5584 142.430651,53.5584" id="Fill-8" fill="#FFFFFF" mask="url(#mask-2)"></path>
            <path d="M164.790664,40.1495027 C163.635569,40.1495027 162.610498,40.5278811 161.718474,41.2853946 C160.824182,42.0413946 160.37817,43.0948 160.37817,44.4395568 C160.37817,44.6930703 160.38951,44.8815027 160.40992,45.0086378 L167.784992,42.0111243 C167.512093,40.7692865 166.512724,40.1495027 164.790664,40.1495027 M164.63267,49.677827 C165.535277,49.677827 166.413694,49.4515568 167.26414,48.9982595 C168.115343,48.5464757 168.792676,47.941827 169.296896,47.1843135 L172.007742,50.1190162 C169.84345,52.4119892 167.401724,53.5584757 164.680295,53.5584757 C161.958867,53.5584757 159.790795,52.7275568 158.172301,51.0657189 C156.553807,49.4038811 155.745694,47.2849622 155.745694,44.7074486 C155.745694,42.1314486 156.633182,40.0443135 158.408158,38.4460432 C160.18389,36.847773 162.22723,36.0478811 164.538176,36.0478811 C166.849879,36.0478811 168.782849,36.6994486 170.337087,38.0040973 C171.892837,39.3087459 172.7327,40.9902595 172.858944,43.0524216 L172.858944,43.651773 L161.575599,48.3209622 C162.289974,49.2252865 163.309754,49.677827 164.63267,49.677827" id="Fill-9" fill="#FFFFFF" mask="url(#mask-2)"></path>
            <path d="M180.957613,43.8402054 L180.957613,53.3057189 L176.230643,53.3057189 L176.230643,36.3316649 L180.957613,36.3316649 L180.957613,38.2250703 C182.386363,36.7728541 183.994274,36.0478811 185.779077,36.0478811 C187.566149,36.0478811 189.062179,36.6782595 190.271702,37.939773 C191.478202,39.2035568 192.08372,40.8865838 192.08372,42.9888541 L192.08372,53.3057189 L187.355238,53.3057189 L187.355238,43.7145838 C187.355238,41.1075568 186.398958,39.8013946 184.487911,39.8013946 C183.54297,39.8013946 182.71747,40.1442054 182.014435,40.8275568 C181.309131,41.5116649 180.957613,42.5151243 180.957613,43.8402054" id="Fill-10" fill="#FFFFFF" mask="url(#mask-2)"></path>
            <path d="M204.50107,49.361427 C206.075718,49.361427 207.493885,48.5736432 208.754814,46.9958054 L211.560909,50.1499676 C209.373939,52.4225081 207.010832,53.5584 204.46932,53.5584 C201.926296,53.5584 199.777879,52.7532108 198.02407,51.1443459 C196.269504,49.5347243 195.392599,47.4324541 195.392599,44.8345081 C195.392599,42.2373189 196.280088,40.1229405 198.05582,38.4936432 C199.830796,36.8628324 201.936123,36.0478054 204.37407,36.0478054 C205.592665,36.0478054 206.827135,36.3005622 208.07748,36.8053189 C209.326314,37.3100757 210.425468,38.0569946 211.370409,39.0453189 L208.912052,42.2622919 C208.366254,41.6122378 207.699504,41.1074811 206.911802,40.7487784 C206.123343,40.3908324 205.340933,40.2122378 204.563814,40.2122378 C203.324052,40.2122378 202.256647,40.6178595 201.364623,41.4268324 C200.471843,42.2373189 200.025832,43.3626162 200.025832,44.8034811 C200.025832,46.2435892 200.471843,47.3643459 201.364623,48.1627243 C202.256647,48.9626162 203.303641,49.361427 204.50107,49.361427" id="Fill-11" fill="#FFFFFF" mask="url(#mask-2)"></path>
            <polygon id="Fill-12" fill="#FFFFFF" mask="url(#mask-2)" points="214.711643 53.3055676 219.438613 53.3055676 219.438613 36.3315135 214.711643 36.3315135"></polygon>
            <path d="M227.821142,44.8504 C227.821142,46.2382919 228.231624,47.3688865 229.051077,48.2421838 C229.870529,49.1154811 230.826053,49.5506162 231.918404,49.5506162 C233.011511,49.5506162 233.936041,49.1154811 234.691993,48.2421838 C235.448702,47.3688865 235.827434,46.2435892 235.827434,44.8662919 C235.827434,43.4882378 235.448702,42.3372108 234.691993,41.4116973 C233.936041,40.485427 233.000928,40.0238054 231.88741,40.0238054 C230.773136,40.0238054 229.818368,40.4808865 229.018571,41.3965622 C228.220285,42.3107243 227.821142,43.4617514 227.821142,44.8504 M225.489785,51.1284541 C223.871291,49.5089946 223.062422,47.3794811 223.062422,44.7399135 C223.062422,42.1003459 223.892458,39.9912649 225.553285,38.413427 C227.211845,36.8363459 229.134232,36.0478054 231.31969,36.0478054 C233.021339,36.0478054 234.502249,36.615373 235.763178,37.7512649 L235.763178,36.3315892 L240.521898,36.3315892 L240.521898,53.3056432 L235.763178,53.3056432 L235.763178,51.9177514 C234.419095,53.0112649 232.885267,53.5584 231.161696,53.5584 C228.998916,53.5584 227.106767,52.7486703 225.489785,51.1284541" id="Fill-13" fill="#FFFFFF" mask="url(#mask-2)"></path>
            <path d="M111.88768,19.2359243 C111.88768,20.9076 111.273847,22.248573 110.043912,23.2580865 C108.81549,24.2668432 107.25596,24.7731135 105.364567,24.7731135 C104.103639,24.7731135 102.790549,24.5460865 101.424543,24.0943027 C100.059293,23.6417622 98.8293589,22.9743027 97.7377637,22.0911676 L99.8181446,19.1254378 C101.582537,20.4928973 103.461835,21.1754919 105.459061,21.1754919 C106.068359,21.1754919 106.549901,21.0551676 106.908222,20.8130054 C107.265787,20.5716 107.444192,20.2507351 107.444192,19.8511676 C107.444192,19.4516 107.19624,19.0838162 106.703359,18.7470595 C106.208966,18.4103027 105.494591,18.0947351 104.560234,17.8003568 C103.625121,17.5059784 102.910746,17.2532216 102.417109,17.0428432 C101.923472,16.8332216 101.361799,16.5274919 100.730579,16.1286811 C99.4492399,15.3287892 98.8081923,14.1459784 98.8081923,12.5787351 C98.8081923,11.0130054 99.4394125,9.73332973 100.700341,8.74576216 C101.960514,7.75668108 103.588079,7.26251892 105.584549,7.26251892 C107.580264,7.26251892 109.576734,7.93527568 111.572448,9.2823027 L109.808055,12.4364649 C108.336972,11.4277081 106.87118,10.9229514 105.411436,10.9229514 C103.950936,10.9229514 103.221442,11.3217622 103.221442,12.1216541 C103.221442,12.5636 103.452008,12.9101946 103.913895,13.1629514 C104.376537,13.4149514 105.143829,13.7093297 106.214258,14.0460865 C107.286198,14.3820865 108.048198,14.6408973 108.499502,14.8187351 C108.950805,14.9973297 109.492067,15.2758162 110.123287,15.6549514 C111.298793,16.3693297 111.88768,17.5634919 111.88768,19.2359243" id="Fill-14" fill="#FFFFFF" mask="url(#mask-2)"></path>
            <path d="M123.643269,20.5765189 C125.217918,20.5765189 126.636085,19.7879784 127.897013,18.2108973 L130.702352,21.3650595 C128.516138,23.6368432 126.153031,24.7734919 123.611519,24.7734919 C121.068495,24.7734919 118.920079,23.9675459 117.166269,22.3594378 C115.411704,20.7498162 114.534799,18.6467892 114.534799,16.0488432 C114.534799,13.4516541 115.422287,11.3372757 117.198019,9.70873514 C118.972995,8.07792432 121.078323,7.26214054 123.516269,7.26214054 C124.734108,7.26214054 125.969335,7.51565405 127.21968,8.01965405 C128.468513,8.52441081 129.567668,9.27208649 130.512608,10.2604108 L128.054251,13.4773838 C127.508454,12.826573 126.841704,12.3218162 126.054001,11.9638703 C125.265543,11.6059243 124.483132,11.4273297 123.706013,11.4273297 C122.466251,11.4273297 121.398846,11.8329514 120.506823,12.6419243 C119.614043,13.4516541 119.168031,14.5777081 119.168031,16.018573 C119.168031,17.4586811 119.614043,18.5786811 120.506823,19.3778162 C121.398846,20.1777081 122.44584,20.5765189 123.643269,20.5765189" id="Fill-15" fill="#FFFFFF" mask="url(#mask-2)"></path>
            <path d="M144.790054,16.6959459 L144.790054,7.546 L149.548774,7.546 L149.548774,24.5200541 L144.790054,24.5200541 L144.790054,22.2800541 C143.61228,23.9426486 142.09584,24.7735676 140.236197,24.7735676 C138.376554,24.7735676 136.816268,24.1885946 135.55534,23.0216757 C134.295167,21.8532432 133.663947,20.1248108 133.663947,17.8318378 L133.663947,7.546 L138.422667,7.546 L138.422667,16.7905405 C138.422667,19.3990811 139.379703,20.7022162 141.291507,20.7022162 C142.236447,20.7022162 143.055899,20.3609189 143.749864,19.6775676 C144.442316,18.9934595 144.790054,18.0005946 144.790054,16.6959459" id="Fill-16" fill="#FFFFFF" mask="url(#mask-2)"></path>
            <path d="M162.186938,11.3646703 C161.031086,11.3646703 160.006771,11.7430486 159.113991,12.5005622 C158.220455,13.2565622 157.774443,14.3092108 157.774443,15.6547243 C157.774443,15.9074811 157.785783,16.0959135 157.806193,16.2230486 L165.181265,13.2255351 C164.908366,11.9844541 163.908997,11.3646703 162.186938,11.3646703 M162.028943,20.8922378 C162.931551,20.8922378 163.809967,20.6667243 164.660414,20.2126703 C165.511616,19.7616432 166.188949,19.1569946 166.69317,18.3994811 L169.404015,21.3341838 C167.239723,23.6264 164.797997,24.7736432 162.076568,24.7736432 C159.35514,24.7736432 157.187068,23.9427243 155.568574,22.2801297 C153.95008,20.6190486 153.141967,18.499373 153.141967,15.9226162 C153.141967,13.3466162 154.029455,11.2587243 155.804432,9.66045405 C157.580164,8.06294054 159.623503,7.26229189 161.934449,7.26229189 C164.246152,7.26229189 166.179122,7.91461622 167.73336,9.21926486 C169.28911,10.5239135 170.128217,12.2046703 170.255217,14.2668324 L170.255217,14.8661838 L158.971872,19.535373 C159.686247,20.4404541 160.706027,20.8922378 162.028943,20.8922378" id="Fill-17" fill="#FFFFFF" mask="url(#mask-2)"></path>
            <path d="M178.386014,2.46687568 L178.386014,18.5577946 C178.386014,19.2093622 178.553836,19.720173 178.890235,20.0872 C179.225877,20.4557405 179.62502,20.6396324 180.087663,20.6396324 C180.96986,20.6396324 181.715229,20.2400649 182.325282,19.4409297 L184.089675,22.7540108 C182.619348,24.0995243 181.069645,24.7737946 179.441324,24.7737946 C177.813002,24.7737946 176.436413,24.2364973 175.313824,23.1634162 C174.188967,22.0918486 173.627294,20.6290378 173.627294,18.7780108 L173.627294,2.46687568 L178.386014,2.46687568 Z" id="Fill-18" fill="#FFFFFF" mask="url(#mask-2)"></path>
            <path d="M190.550649,16.0655676 C190.550649,17.4534595 190.961131,18.5840541 191.780583,19.4565946 C192.600036,20.3298919 193.55556,20.765027 194.647911,20.765027 C195.740262,20.765027 196.664792,20.3298919 197.4215,19.4565946 C198.178208,18.5840541 198.55694,17.4587568 198.55694,16.0814595 C198.55694,14.7034054 198.178208,13.5523784 197.4215,12.6261081 C196.664792,11.7005946 195.730435,11.2382162 194.616917,11.2382162 C193.502643,11.2382162 192.547119,11.6960541 191.748077,12.610973 C190.949792,13.5251351 190.550649,14.6761622 190.550649,16.0655676 M188.219292,22.3428649 C186.600798,20.7241622 185.791929,18.5946486 185.791929,15.9550811 C185.791929,13.3155135 186.621208,11.2064324 188.282036,9.62859459 C189.941351,8.05075676 191.863738,7.26221622 194.049196,7.26221622 C195.750845,7.26221622 197.231756,7.82978378 198.492685,8.96643243 L198.492685,7.546 L203.251405,7.546 L203.251405,24.5200541 L198.492685,24.5200541 L198.492685,23.1329189 C197.148601,24.2264324 195.614774,24.7735676 193.891202,24.7735676 C191.727667,24.7735676 189.836274,23.9630811 188.219292,22.3428649" id="Fill-19" fill="#FFFFFF" mask="url(#mask-2)"></path>
            <path d="M220.018731,16.0655676 C220.018731,17.433027 220.427701,18.5522703 221.247154,19.4248108 C222.066606,20.2981081 223.02213,20.7347568 224.114481,20.7347568 C225.207588,20.7347568 226.136654,20.2981081 226.903945,19.4248108 C227.671237,18.5522703 228.053749,17.4277297 228.053749,16.0489189 C228.053749,14.6708649 227.671237,13.5251351 226.903945,12.610973 C226.136654,11.6960541 225.197005,11.2382162 224.083487,11.2382162 C222.969213,11.2382162 222.014445,11.7005946 221.215404,12.6261081 C220.417118,13.5523784 220.018731,14.6981081 220.018731,16.0655676 M222.996427,24.7735676 C220.989374,24.7735676 219.199279,23.9207027 217.623118,22.2172432 C216.046957,20.5137838 215.260011,18.3994054 215.260011,15.8756216 C215.260011,13.3518378 216.026546,11.2851351 217.560374,9.67627027 C219.092689,8.06816216 220.889588,7.26221622 222.948802,7.26221622 C225.008773,7.26221622 226.688499,7.98794595 227.991005,9.44016216 L227.991005,1.11054054 L232.719487,1.11054054 L232.719487,24.5200541 L227.991005,24.5200541 L227.991005,22.2800541 C226.668088,23.9426486 225.001969,24.7735676 222.996427,24.7735676" id="Fill-20" fill="#FFFFFF" mask="url(#mask-2)"></path>
            <path d="M245.356063,11.3646703 C244.200967,11.3646703 243.175896,11.7430486 242.283872,12.5005622 C241.38958,13.2565622 240.943568,14.3092108 240.943568,15.6547243 C240.943568,15.9074811 240.954908,16.0959135 240.975318,16.2230486 L248.35039,13.2255351 C248.077491,11.9844541 247.078122,11.3646703 245.356063,11.3646703 M245.198824,20.8922378 C246.101432,20.8922378 246.979848,20.6667243 247.829539,20.2126703 C248.681497,19.7616432 249.358074,19.1569946 249.862295,18.3994811 L252.57314,21.3341838 C250.408848,23.6264 247.967122,24.7736432 245.245693,24.7736432 C242.524265,24.7736432 240.356193,23.9427243 238.737699,22.2801297 C237.119205,20.6190486 236.311848,18.499373 236.311848,15.9226162 C236.311848,13.3466162 237.19858,11.2587243 238.973557,9.66045405 C240.750045,8.06294054 242.792628,7.26229189 245.103574,7.26229189 C247.416033,7.26229189 249.348247,7.91461622 250.902485,9.21926486 C252.458235,10.5239135 253.298098,12.2046703 253.425098,14.2668324 L253.425098,14.8661838 L242.140997,19.535373 C242.855372,20.4404541 243.875152,20.8922378 245.198824,20.8922378" id="Fill-21" fill="#FFFFFF" mask="url(#mask-2)"></path>
            <polygon id="Fill-22" fill="#FFFFFF" mask="url(#mask-2)" points="83.9155524 20.5336865 83.9155524 15.6019027 94.5533143 15.6019027 94.5533143 11.5744432 83.9155524 11.5744432 83.9155524 6.70622703 95.70085 6.70622703 95.70085 2.67801081 78.6813381 2.67801081 78.6813381 24.5611459 96.050856 24.5611459 96.050856 20.5336865"></polygon>
            <path d="M46.4479065,43.4721189 C45.4659244,43.4721189 44.5013292,43.3956865 43.5586565,43.2511459 L43.5586565,12.3429297 L32.0470137,12.3429297 C35.5153232,8.25341622 40.6822577,5.65092973 46.4479065,5.65092973 C56.8641744,5.65092973 65.3384006,14.134173 65.3384006,24.5615243 C65.3384006,34.9888757 56.8641744,43.4721189 46.4479065,43.4721189 L46.4479065,43.4721189 Z M38.6691565,41.7875784 C32.1241208,38.8142811 27.5574125,32.2138486 27.5574125,24.5615243 C27.5574125,21.9658486 28.0835554,19.4912541 29.0330315,17.2376324 L38.6691565,17.2376324 L38.6691565,41.7875784 Z M38.6691565,51.0540649 L4.8894244,51.0540649 L4.8894244,17.2376324 L23.8252756,17.2376324 C23.0768827,19.5464973 22.6679125,22.0067135 22.6679125,24.5615243 C22.6679125,34.9608757 29.3671625,43.8179568 38.6691565,47.0515784 L38.6691565,51.0540649 Z M46.4479065,0.756983784 C37.7960315,0.756983784 30.2100494,5.40801081 26.0492875,12.3429297 L-7.55952381e-05,12.3429297 L-7.55952381e-05,55.9480108 L43.5586565,55.9480108 L43.5586565,48.1852 C44.5066208,48.300227 45.4697042,48.3668216 46.4479065,48.3668216 C59.5599006,48.3668216 70.2279006,37.6874703 70.2279006,24.5615243 C70.2279006,11.4355784 59.5599006,0.756983784 46.4479065,0.756983784 L46.4479065,0.756983784 Z" id="Fill-23" fill="#FFFFFF" mask="url(#mask-2)"></path>
        </g>
    </g>
</svg>