<?xml version="1.0" encoding="UTF-8" standalone="no"?>
<svg width="203px" height="182px" viewBox="0 0 203 182" version="1.1" xmlns="http://www.w3.org/2000/svg" xmlns:xlink="http://www.w3.org/1999/xlink">
    <!-- Generator: Sketch 41.2 (35397) - http://www.bohemiancoding.com/sketch -->
    <title>Group 7</title>
    <desc>Created with Sketch.</desc>
    <defs></defs>
    <g id="Page-1" stroke="none" stroke-width="1" fill="none" fill-rule="evenodd">
        <g id="Desktop-Copy-13" transform="translate(-545.000000, -1313.000000)">
            <g id="Group-7" transform="translate(545.000000, 1313.000000)">
                <path d="M89.3406,63.2191 C89.3406,54.8251 82.5366,48.0211 74.1436,48.0211 C65.7496,48.0211 58.9456,54.8251 58.9456,63.2191 C58.9456,71.6121 65.7496,78.4161 74.1436,78.4161 C82.5366,78.4161 89.3406,71.6121 89.3406,63.2191" id="Fill-18" fill="#EA5350"></path>
                <polygon id="Fill-1" fill="#1D1C1B" points="90.3963 145.3294 67.4383 74.8734 77.6763 71.5374 100.6353 141.9924"></polygon>
                <polygon id="Fill-2" fill="#1D1C1B" points="169.0237 91.224 152.2047 38.486 162.4637 35.214 179.2827 87.953"></polygon>
                <polygon id="Fill-3" fill="#1D1C1B" points="111.243 145.8314 101.169 142.0274 142.217 33.3494 152.291 37.1524"></polygon>
                <path d="M119.1028,166.6214 C119.1028,158.2274 112.2988,151.4244 103.9058,151.4244 C95.5118,151.4244 88.7078,158.2274 88.7078,166.6214 C88.7078,175.0154 95.5118,181.8184 103.9058,181.8184 C112.2988,181.8184 119.1028,175.0154 119.1028,166.6214" id="Fill-20" fill="#F7BD3A"></path>
                <path d="M202.9495,105.4017 C202.9495,97.0077 196.1455,90.2047 187.7525,90.2047 C179.3585,90.2047 172.5545,97.0077 172.5545,105.4017 C172.5545,113.7957 179.3585,120.5987 187.7525,120.5987 C196.1455,120.5987 202.9495,113.7957 202.9495,105.4017" id="Fill-22" fill="#32AEC1"></path>
                <polygon id="Fill-4" fill="#1D1C1B" points="35.0862 120.3782 25.9402 114.6932 54.4952 68.7462 63.6412 74.4302"></polygon>
                <polygon id="Fill-5" fill="#1D1C1B" points="162.2503 104.0423 78.5143 68.4143 82.7293 58.5073 166.4653 94.1353"></polygon>
                <polygon id="Fill-6" fill="#1D1C1B" points="82.2303 158.2415 35.4143 141.6735 39.0063 131.5215 85.8233 148.0905"></polygon>
                <polygon id="Fill-7" fill="#1D1C1B" points="116.8602 154.3802 110.7982 145.4822 162.7122 110.1162 168.7752 119.0152"></polygon>
                <path d="M89.9163,160.7415 C90.8773,166.5865 96.4073,170.5735 102.2553,169.5965 C105.0853,169.1335 107.5663,167.5935 109.2383,165.2635 C110.9113,162.9315 111.5773,160.0905 111.1123,157.2595 C110.1513,151.4115 104.6123,147.4305 98.7723,148.4025 C92.9303,149.3615 88.9573,154.8965 89.9163,160.7415 M100.5023,180.5095 C90.1643,180.5095 81.0203,173.0145 79.2913,162.4865 C77.3693,150.7815 85.3263,139.6985 97.0293,137.7755 C108.7323,135.8845 119.8153,143.8135 121.7373,155.5125 C122.6693,161.1825 121.3363,166.8755 117.9863,171.5415 C114.6363,176.2105 109.6683,179.2925 103.9993,180.2235 C102.8253,180.4155 101.6563,180.5095 100.5023,180.5095" id="Fill-8" fill="#1D1C1B"></path>
                <path d="M168.5975,107.1429 C169.0625,109.9719 170.6025,112.4529 172.9325,114.1259 C175.2645,115.7979 178.1085,116.4719 180.9345,115.9979 C183.7665,115.5349 186.2475,113.9949 187.9195,111.6639 C189.5935,109.3329 190.2585,106.4919 189.7935,103.6619 C188.8335,97.8169 183.2865,93.8279 177.4535,94.8039 C171.6125,95.7639 167.6395,101.2999 168.5975,107.1429 M179.1475,126.9139 C174.6885,126.9139 170.3485,125.5269 166.6535,122.8739 C161.9865,119.5239 158.9035,114.5579 157.9725,108.8879 C156.0515,97.1869 164.0085,86.1009 175.7085,84.1769 C187.4105,82.2619 198.4965,90.2139 200.4185,101.9159 C201.3505,107.5859 200.0175,113.2779 196.6675,117.9449 C193.3175,122.6119 188.3495,125.6939 182.6805,126.6249 C181.5015,126.8189 180.3205,126.9139 179.1475,126.9139" id="Fill-10" fill="#1D1C1B"></path>
                <path d="M56.9729,59.6488 C57.9329,65.4938 63.4709,69.4808 69.3119,68.5038 C72.1419,68.0408 74.6229,66.5008 76.2949,64.1708 C77.9689,61.8388 78.6339,58.9978 78.1689,56.1688 C77.2089,50.3238 71.6669,46.3378 65.8289,47.3098 C59.9879,48.2708 56.0149,53.8058 56.9729,59.6488 M67.5599,79.4168 C57.2209,79.4168 48.0769,71.9218 46.3479,61.3938 C44.4269,49.6928 52.3839,38.6078 64.0839,36.6828 C75.7839,34.7708 86.8719,42.7188 88.7939,54.4218 C89.7259,60.0918 88.3929,65.7848 85.0429,70.4508 C81.6919,75.1178 76.7249,78.1998 71.0559,79.1308 C69.8819,79.3228 68.7129,79.4168 67.5599,79.4168" id="Fill-12" fill="#1D1C1B"></path>
                <path d="M11.4114,132.9583 C11.8764,135.7883 13.4164,138.2703 15.7464,139.9423 C18.0784,141.6163 20.9214,142.2813 23.7484,141.8133 C26.5804,141.3503 29.0614,139.8103 30.7334,137.4803 C32.4074,135.1493 33.0724,132.3073 32.6074,129.4783 C31.6474,123.6333 26.1114,119.6513 20.2684,120.6203 C14.4264,121.5803 10.4534,127.1153 11.4114,132.9583 M21.9614,152.7293 C17.5014,152.7293 13.1634,151.3433 9.4664,148.6893 C4.8004,145.3393 1.7174,140.3733 0.7864,134.7033 C-1.1356,123.0023 6.8224,111.9173 18.5224,109.9923 C30.2274,108.0863 41.3104,116.0283 43.2324,127.7313 C44.1644,133.4013 42.8324,139.0943 39.4814,143.7613 C36.1314,148.4273 31.1644,151.5093 25.4944,152.4413 C24.3154,152.6343 23.1344,152.7293 21.9614,152.7293" id="Fill-14" fill="#1D1C1B"></path>
                <path d="M141.845,23.2523 C142.311,26.0843 143.85,28.5643 146.18,30.2353 C148.512,31.9083 151.355,32.5753 154.182,32.1073 C157.014,31.6443 159.495,30.1043 161.167,27.7743 C162.84,25.4423 163.506,22.6013 163.041,19.7713 C162.079,13.9263 156.536,9.9393 150.701,10.9133 C144.86,11.8743 140.886,17.4093 141.845,23.2523 M152.395,43.0233 C147.936,43.0233 143.596,41.6363 139.901,38.9833 C135.233,35.6333 132.15,30.6673 131.22,24.9973 C129.299,13.2963 137.255,2.2113 148.956,0.2863 C160.655,-1.6347 171.744,6.3223 173.666,18.0253 C174.598,23.6953 173.265,29.3883 169.915,34.0543 C166.564,38.7213 161.597,41.8033 155.928,42.7343 C154.749,42.9283 153.568,43.0233 152.395,43.0233" id="Fill-16" fill="#1D1C1B"></path>
            </g>
        </g>
    </g>
</svg>