<?xml version="1.0" encoding="UTF-8" standalone="no"?>
<svg width="64px" height="64px" viewBox="0 0 64 64" version="1.1" xmlns="http://www.w3.org/2000/svg" xmlns:xlink="http://www.w3.org/1999/xlink">
    <!-- Generator: Sketch 41.2 (35397) - http://www.bohemiancoding.com/sketch -->
    <title>Artboard 4 Copy 2</title>
    <desc>Created with Sketch.</desc>
    <defs></defs>
    <g id="Page-1" stroke="none" stroke-width="1" fill="none" fill-rule="evenodd">
        <g id="Artboard-4-Copy-2" fill="#000000">
            <path d="M13.537,12.924 L13.537,1.486 L50.345,1.486 L50.345,10.774 L38.047,24.792 C42.8630241,25.5946707 46.5896535,27.6156505 49.227,30.855 C51.8643465,34.0943495 53.183,37.8353121 53.183,42.078 C53.183,48.3846982 51.0473547,53.3296488 46.776,56.913 C42.5046453,60.4963513 37.0436999,62.288 30.393,62.288 C23.7423001,62.288 17.0057008,59.9373568 10.183,55.236 L15.687,44.572 C21.3630284,48.5853534 26.4369776,50.592 30.909,50.592 C33.6036801,50.592 35.8253246,49.9326733 37.574,48.614 C39.3226754,47.2953267 40.197,45.3890125 40.197,42.895 C40.197,40.4009875 39.1936767,38.4230073 37.187,36.961 C35.1803233,35.4989927 32.3996844,34.768 28.845,34.768 C26.9529905,34.768 24.2870172,35.3126612 20.847,36.402 L20.847,26.512 L32.371,12.924 L13.537,12.924 Z" id="3"></path>
        </g>
    </g>
</svg>